<svg xmlns="http://www.w3.org/2000/svg" xmlns:xlink="http://www.w3.org/1999/xlink" width="500" zoomAndPan="magnify" viewBox="0 0 375 374.999991" height="500" preserveAspectRatio="xMidYMid meet" version="1.0"><defs><g/><clipPath id="735740797a"><path d="M 64.832031 199.324219 L 159.804688 199.324219 L 159.804688 246.652344 L 64.832031 246.652344 Z M 64.832031 199.324219 " clip-rule="nonzero"/></clipPath><clipPath id="55208d663e"><path d="M 64.769531 128.152344 L 137 128.152344 L 137 152 L 64.769531 152 Z M 64.769531 128.152344 " clip-rule="nonzero"/></clipPath><clipPath id="365fe5f32a"><path d="M 64.832031 151.804688 L 159.804688 151.804688 L 159.804688 199.539062 L 64.832031 199.539062 Z M 64.832031 151.804688 " clip-rule="nonzero"/></clipPath></defs><g clip-path="url(#735740797a)"><path fill="#1982ff" d="M 124.21875 223.09375 C 124.214844 223.09375 124.210938 223.09375 124.203125 223.09375 L 64.832031 223.09375 L 64.832031 246.828125 L 124.191406 246.839844 C 143.859375 246.84375 159.804688 230.902344 159.804688 211.234375 C 159.804688 207.070312 159.089844 203.074219 157.773438 199.359375 C 152.886719 213.179688 139.710938 223.085938 124.21875 223.09375 " fill-opacity="1" fill-rule="nonzero"/></g><g clip-path="url(#55208d663e)"><path fill="#1982ff" d="M 136.070312 140.007812 C 136.070312 133.6875 131.128906 128.519531 124.894531 128.164062 C 124.664062 128.15625 124.433594 128.152344 124.199219 128.152344 L 64.832031 128.152344 L 64.832031 151.875 L 124.203125 151.875 C 130.757812 151.875 136.070312 146.5625 136.070312 140.007812 " fill-opacity="1" fill-rule="nonzero"/></g><g clip-path="url(#365fe5f32a)"><path fill="#1982ff" d="M 124.21875 175.621094 C 124.214844 175.621094 124.210938 175.621094 124.203125 175.621094 L 64.832031 175.621094 L 64.832031 199.355469 L 124.191406 199.367188 C 143.859375 199.371094 159.804688 183.429688 159.804688 163.761719 C 159.804688 159.597656 159.089844 155.601562 157.773438 151.886719 C 152.886719 165.707031 139.710938 175.613281 124.21875 175.621094 " fill-opacity="1" fill-rule="nonzero"/></g><g fill="#1982ff" fill-opacity="1"><g transform="translate(176.89495, 202.749961)"><g><path d="M 48.5625 -14.078125 C 48.5625 -9.597656 46.878906 -6.128906 43.515625 -3.671875 C 40.148438 -1.222656 35.476562 0 29.5 0 L 4.796875 0 L 4.796875 -49.359375 L 27.390625 -49.359375 C 33.421875 -49.359375 37.984375 -48.3125 41.078125 -46.21875 C 44.171875 -44.132812 45.71875 -41.050781 45.71875 -36.96875 C 45.71875 -34.15625 44.941406 -31.785156 43.390625 -29.859375 C 41.835938 -27.929688 39.472656 -26.628906 36.296875 -25.953125 C 40.285156 -25.492188 43.328125 -24.238281 45.421875 -22.1875 C 47.515625 -20.144531 48.5625 -17.441406 48.5625 -14.078125 Z M 35.3125 -35.5625 C 35.3125 -37.78125 34.601562 -39.351562 33.1875 -40.28125 C 31.78125 -41.21875 29.6875 -41.6875 26.90625 -41.6875 L 15.140625 -41.6875 L 15.140625 -29.46875 L 26.96875 -29.46875 C 29.894531 -29.46875 32.015625 -29.972656 33.328125 -30.984375 C 34.648438 -32.003906 35.3125 -33.53125 35.3125 -35.5625 Z M 38.1875 -14.890625 C 38.1875 -19.515625 34.867188 -21.828125 28.234375 -21.828125 L 15.140625 -21.828125 L 15.140625 -7.671875 L 28.625 -7.671875 C 31.9375 -7.671875 34.359375 -8.269531 35.890625 -9.46875 C 37.421875 -10.675781 38.1875 -12.484375 38.1875 -14.890625 Z M 38.1875 -14.890625 "/></g></g></g><g fill="#1982ff" fill-opacity="1"><g transform="translate(228.704856, 202.749961)"><g><path d="M 45.40625 -33.734375 C 45.40625 -30.554688 44.679688 -27.71875 43.234375 -25.21875 C 41.785156 -22.71875 39.710938 -20.785156 37.015625 -19.421875 C 34.316406 -18.054688 31.109375 -17.375 27.390625 -17.375 L 15.140625 -17.375 L 15.140625 0 L 4.796875 0 L 4.796875 -49.359375 L 26.96875 -49.359375 C 32.882812 -49.359375 37.4375 -48 40.625 -45.28125 C 43.8125 -42.5625 45.40625 -38.710938 45.40625 -33.734375 Z M 35 -33.5625 C 35 -38.75 31.9375 -41.34375 25.8125 -41.34375 L 15.140625 -41.34375 L 15.140625 -25.328125 L 26.09375 -25.328125 C 28.945312 -25.328125 31.144531 -26.03125 32.6875 -27.4375 C 34.226562 -28.851562 35 -30.894531 35 -33.5625 Z M 35 -33.5625 "/></g></g></g><g fill="#1982ff" fill-opacity="1"><g transform="translate(276.556331, 202.749961)"><g><path d="M 39.6875 0 L 35.3125 -12.609375 L 16.5 -12.609375 L 12.125 0 L 1.78125 0 L 19.796875 -49.359375 L 31.984375 -49.359375 L 49.921875 0 Z M 25.890625 -41.765625 L 25.6875 -40.984375 C 25.445312 -40.148438 25.160156 -39.191406 24.828125 -38.109375 C 24.503906 -37.035156 22.5 -31.128906 18.8125 -20.390625 L 33 -20.390625 L 28.125 -34.578125 L 26.625 -39.34375 Z M 25.890625 -41.765625 "/></g></g></g><g fill="#1982ff" fill-opacity="1"><g transform="translate(328.371502, 202.749961)"><g/></g></g><g fill="#1982ff" fill-opacity="1"><g transform="translate(170.371546, 236.900711)"><g><path d="M 1.625 0 L 1.625 -14.046875 L 6.21875 -14.046875 C 7.738281 -14.046875 8.882812 -13.726562 9.65625 -13.09375 C 10.425781 -12.46875 10.8125 -11.535156 10.8125 -10.296875 C 10.8125 -9.640625 10.625 -9.054688 10.25 -8.546875 C 9.875 -8.046875 9.367188 -7.660156 8.734375 -7.390625 C 9.484375 -7.171875 10.078125 -6.765625 10.515625 -6.171875 C 10.960938 -5.578125 11.1875 -4.867188 11.1875 -4.046875 C 11.1875 -2.785156 10.773438 -1.796875 9.953125 -1.078125 C 9.140625 -0.359375 7.988281 0 6.5 0 Z M 3.484375 -6.5625 L 3.484375 -1.515625 L 6.53125 -1.515625 C 7.394531 -1.515625 8.078125 -1.738281 8.578125 -2.1875 C 9.078125 -2.632812 9.328125 -3.25 9.328125 -4.03125 C 9.328125 -5.71875 8.40625 -6.5625 6.5625 -6.5625 Z M 3.484375 -8.046875 L 6.28125 -8.046875 C 7.09375 -8.046875 7.738281 -8.25 8.21875 -8.65625 C 8.707031 -9.0625 8.953125 -9.613281 8.953125 -10.3125 C 8.953125 -11.082031 8.722656 -11.640625 8.265625 -11.984375 C 7.816406 -12.335938 7.132812 -12.515625 6.21875 -12.515625 L 3.484375 -12.515625 Z M 3.484375 -8.046875 "/></g></g></g><g fill="#1982ff" fill-opacity="1"><g transform="translate(182.664651, 236.900711)"><g><path d="M 7.796875 0 C 7.691406 -0.207031 7.609375 -0.570312 7.546875 -1.09375 C 6.710938 -0.238281 5.722656 0.1875 4.578125 0.1875 C 3.546875 0.1875 2.695312 -0.0976562 2.03125 -0.671875 C 1.375 -1.253906 1.046875 -1.992188 1.046875 -2.890625 C 1.046875 -3.972656 1.457031 -4.816406 2.28125 -5.421875 C 3.113281 -6.023438 4.28125 -6.328125 5.78125 -6.328125 L 7.515625 -6.328125 L 7.515625 -7.140625 C 7.515625 -7.765625 7.328125 -8.257812 6.953125 -8.625 C 6.578125 -9 6.023438 -9.1875 5.296875 -9.1875 C 4.660156 -9.1875 4.128906 -9.023438 3.703125 -8.703125 C 3.273438 -8.378906 3.0625 -7.992188 3.0625 -7.546875 L 1.265625 -7.546875 C 1.265625 -8.066406 1.445312 -8.566406 1.8125 -9.046875 C 2.1875 -9.535156 2.6875 -9.921875 3.3125 -10.203125 C 3.945312 -10.484375 4.644531 -10.625 5.40625 -10.625 C 6.613281 -10.625 7.554688 -10.320312 8.234375 -9.71875 C 8.921875 -9.125 9.273438 -8.300781 9.296875 -7.25 L 9.296875 -2.4375 C 9.296875 -1.476562 9.414062 -0.71875 9.65625 -0.15625 L 9.65625 0 Z M 4.828125 -1.359375 C 5.390625 -1.359375 5.921875 -1.503906 6.421875 -1.796875 C 6.921875 -2.085938 7.285156 -2.460938 7.515625 -2.921875 L 7.515625 -5.0625 L 6.109375 -5.0625 C 3.921875 -5.0625 2.828125 -4.421875 2.828125 -3.140625 C 2.828125 -2.585938 3.015625 -2.148438 3.390625 -1.828125 C 3.765625 -1.515625 4.242188 -1.359375 4.828125 -1.359375 Z M 4.828125 -1.359375 "/></g></g></g><g fill="#1982ff" fill-opacity="1"><g transform="translate(193.405446, 236.900711)"><g><path d="M 3.03125 -10.4375 L 3.09375 -9.125 C 3.894531 -10.125 4.9375 -10.625 6.21875 -10.625 C 8.425781 -10.625 9.539062 -9.378906 9.5625 -6.890625 L 9.5625 0 L 7.765625 0 L 7.765625 -6.90625 C 7.765625 -7.65625 7.59375 -8.207031 7.25 -8.5625 C 6.914062 -8.925781 6.394531 -9.109375 5.6875 -9.109375 C 5.101562 -9.109375 4.59375 -8.953125 4.15625 -8.640625 C 3.71875 -8.335938 3.378906 -7.9375 3.140625 -7.4375 L 3.140625 0 L 1.34375 0 L 1.34375 -10.4375 Z M 3.03125 -10.4375 "/></g></g></g><g fill="#1982ff" fill-opacity="1"><g transform="translate(204.300507, 236.900711)"><g><path d="M 5.53125 -1.265625 C 6.164062 -1.265625 6.722656 -1.457031 7.203125 -1.84375 C 7.679688 -2.226562 7.945312 -2.707031 8 -3.28125 L 9.6875 -3.28125 C 9.65625 -2.6875 9.445312 -2.117188 9.0625 -1.578125 C 8.6875 -1.035156 8.179688 -0.601562 7.546875 -0.28125 C 6.910156 0.03125 6.238281 0.1875 5.53125 0.1875 C 4.113281 0.1875 2.984375 -0.285156 2.140625 -1.234375 C 1.304688 -2.179688 0.890625 -3.476562 0.890625 -5.125 L 0.890625 -5.421875 C 0.890625 -6.429688 1.070312 -7.332031 1.4375 -8.125 C 1.8125 -8.914062 2.347656 -9.53125 3.046875 -9.96875 C 3.742188 -10.40625 4.570312 -10.625 5.53125 -10.625 C 6.695312 -10.625 7.664062 -10.273438 8.4375 -9.578125 C 9.21875 -8.878906 9.632812 -7.96875 9.6875 -6.84375 L 8 -6.84375 C 7.945312 -7.519531 7.6875 -8.070312 7.21875 -8.5 C 6.757812 -8.9375 6.195312 -9.15625 5.53125 -9.15625 C 4.625 -9.15625 3.921875 -8.828125 3.421875 -8.171875 C 2.921875 -7.523438 2.671875 -6.585938 2.671875 -5.359375 L 2.671875 -5.015625 C 2.671875 -3.816406 2.914062 -2.890625 3.40625 -2.234375 C 3.90625 -1.585938 4.613281 -1.265625 5.53125 -1.265625 Z M 5.53125 -1.265625 "/></g></g></g><g fill="#1982ff" fill-opacity="1"><g transform="translate(214.636352, 236.900711)"><g><path d="M 0.875 -5.3125 C 0.875 -6.332031 1.070312 -7.25 1.46875 -8.0625 C 1.875 -8.882812 2.4375 -9.515625 3.15625 -9.953125 C 3.875 -10.398438 4.691406 -10.625 5.609375 -10.625 C 7.035156 -10.625 8.1875 -10.128906 9.0625 -9.140625 C 9.9375 -8.160156 10.375 -6.859375 10.375 -5.234375 L 10.375 -5.09375 C 10.375 -4.082031 10.175781 -3.171875 9.78125 -2.359375 C 9.394531 -1.554688 8.84375 -0.929688 8.125 -0.484375 C 7.40625 -0.0351562 6.570312 0.1875 5.625 0.1875 C 4.21875 0.1875 3.070312 -0.300781 2.1875 -1.28125 C 1.3125 -2.269531 0.875 -3.570312 0.875 -5.1875 Z M 2.671875 -5.09375 C 2.671875 -3.9375 2.9375 -3.007812 3.46875 -2.3125 C 4.007812 -1.613281 4.726562 -1.265625 5.625 -1.265625 C 6.53125 -1.265625 7.25 -1.617188 7.78125 -2.328125 C 8.320312 -3.035156 8.59375 -4.03125 8.59375 -5.3125 C 8.59375 -6.457031 8.320312 -7.382812 7.78125 -8.09375 C 7.238281 -8.800781 6.515625 -9.15625 5.609375 -9.15625 C 4.734375 -9.15625 4.023438 -8.804688 3.484375 -8.109375 C 2.941406 -7.410156 2.671875 -6.40625 2.671875 -5.09375 Z M 2.671875 -5.09375 "/></g></g></g><g fill="#1982ff" fill-opacity="1"><g transform="translate(225.897795, 236.900711)"><g/></g></g><g fill="#1982ff" fill-opacity="1"><g transform="translate(230.786116, 236.900711)"><g><path d="M 1.625 0 L 1.625 -14.046875 L 5.59375 -14.046875 C 6.8125 -14.046875 7.890625 -13.773438 8.828125 -13.234375 C 9.765625 -12.691406 10.488281 -11.921875 11 -10.921875 C 11.519531 -9.929688 11.78125 -8.789062 11.78125 -7.5 L 11.78125 -6.59375 C 11.78125 -5.269531 11.523438 -4.109375 11.015625 -3.109375 C 10.503906 -2.117188 9.773438 -1.351562 8.828125 -0.8125 C 7.878906 -0.28125 6.773438 -0.0078125 5.515625 0 Z M 3.484375 -12.515625 L 3.484375 -1.515625 L 5.421875 -1.515625 C 6.847656 -1.515625 7.957031 -1.957031 8.75 -2.84375 C 9.550781 -3.726562 9.953125 -4.992188 9.953125 -6.640625 L 9.953125 -7.453125 C 9.953125 -9.046875 9.578125 -10.285156 8.828125 -11.171875 C 8.078125 -12.054688 7.015625 -12.503906 5.640625 -12.515625 Z M 3.484375 -12.515625 "/></g></g></g><g fill="#1982ff" fill-opacity="1"><g transform="translate(243.734853, 236.900711)"><g><path d="M 5.6875 0.1875 C 4.269531 0.1875 3.113281 -0.273438 2.21875 -1.203125 C 1.332031 -2.128906 0.890625 -3.367188 0.890625 -4.921875 L 0.890625 -5.25 C 0.890625 -6.289062 1.085938 -7.21875 1.484375 -8.03125 C 1.878906 -8.84375 2.429688 -9.476562 3.140625 -9.9375 C 3.859375 -10.394531 4.628906 -10.625 5.453125 -10.625 C 6.816406 -10.625 7.875 -10.175781 8.625 -9.28125 C 9.375 -8.394531 9.75 -7.117188 9.75 -5.453125 L 9.75 -4.703125 L 2.6875 -4.703125 C 2.707031 -3.671875 3.003906 -2.835938 3.578125 -2.203125 C 4.160156 -1.578125 4.894531 -1.265625 5.78125 -1.265625 C 6.40625 -1.265625 6.9375 -1.390625 7.375 -1.640625 C 7.8125 -1.898438 8.195312 -2.242188 8.53125 -2.671875 L 9.609375 -1.828125 C 8.734375 -0.484375 7.425781 0.1875 5.6875 0.1875 Z M 5.453125 -9.15625 C 4.734375 -9.15625 4.128906 -8.894531 3.640625 -8.375 C 3.148438 -7.851562 2.847656 -7.117188 2.734375 -6.171875 L 7.96875 -6.171875 L 7.96875 -6.3125 C 7.914062 -7.21875 7.671875 -7.914062 7.234375 -8.40625 C 6.796875 -8.90625 6.203125 -9.15625 5.453125 -9.15625 Z M 5.453125 -9.15625 "/></g></g></g><g fill="#1982ff" fill-opacity="1"><g transform="translate(254.196045, 236.900711)"><g/></g></g><g fill="#1982ff" fill-opacity="1"><g transform="translate(259.084366, 236.900711)"><g><path d="M 3.484375 -5.5 L 3.484375 0 L 1.625 0 L 1.625 -14.046875 L 6.8125 -14.046875 C 8.34375 -14.046875 9.546875 -13.648438 10.421875 -12.859375 C 11.296875 -12.078125 11.734375 -11.039062 11.734375 -9.75 C 11.734375 -8.382812 11.304688 -7.332031 10.453125 -6.59375 C 9.597656 -5.863281 8.378906 -5.5 6.796875 -5.5 Z M 3.484375 -7.015625 L 6.8125 -7.015625 C 7.800781 -7.015625 8.554688 -7.242188 9.078125 -7.703125 C 9.609375 -8.171875 9.875 -8.847656 9.875 -9.734375 C 9.875 -10.566406 9.609375 -11.234375 9.078125 -11.734375 C 8.554688 -12.234375 7.835938 -12.492188 6.921875 -12.515625 L 3.484375 -12.515625 Z M 3.484375 -7.015625 "/></g></g></g><g fill="#1982ff" fill-opacity="1"><g transform="translate(271.541373, 236.900711)"><g><path d="M 0.875 -5.3125 C 0.875 -6.332031 1.070312 -7.25 1.46875 -8.0625 C 1.875 -8.882812 2.4375 -9.515625 3.15625 -9.953125 C 3.875 -10.398438 4.691406 -10.625 5.609375 -10.625 C 7.035156 -10.625 8.1875 -10.128906 9.0625 -9.140625 C 9.9375 -8.160156 10.375 -6.859375 10.375 -5.234375 L 10.375 -5.09375 C 10.375 -4.082031 10.175781 -3.171875 9.78125 -2.359375 C 9.394531 -1.554688 8.84375 -0.929688 8.125 -0.484375 C 7.40625 -0.0351562 6.570312 0.1875 5.625 0.1875 C 4.21875 0.1875 3.070312 -0.300781 2.1875 -1.28125 C 1.3125 -2.269531 0.875 -3.570312 0.875 -5.1875 Z M 2.671875 -5.09375 C 2.671875 -3.9375 2.9375 -3.007812 3.46875 -2.3125 C 4.007812 -1.613281 4.726562 -1.265625 5.625 -1.265625 C 6.53125 -1.265625 7.25 -1.617188 7.78125 -2.328125 C 8.320312 -3.035156 8.59375 -4.03125 8.59375 -5.3125 C 8.59375 -6.457031 8.320312 -7.382812 7.78125 -8.09375 C 7.238281 -8.800781 6.515625 -9.15625 5.609375 -9.15625 C 4.734375 -9.15625 4.023438 -8.804688 3.484375 -8.109375 C 2.941406 -7.410156 2.671875 -6.40625 2.671875 -5.09375 Z M 2.671875 -5.09375 "/></g></g></g><g fill="#1982ff" fill-opacity="1"><g transform="translate(282.802817, 236.900711)"><g><path d="M 7.796875 -1.03125 C 7.097656 -0.21875 6.078125 0.1875 4.734375 0.1875 C 3.617188 0.1875 2.769531 -0.132812 2.1875 -0.78125 C 1.613281 -1.425781 1.320312 -2.378906 1.3125 -3.640625 L 1.3125 -10.4375 L 3.09375 -10.4375 L 3.09375 -3.6875 C 3.09375 -2.113281 3.738281 -1.328125 5.03125 -1.328125 C 6.382812 -1.328125 7.289062 -1.832031 7.75 -2.84375 L 7.75 -10.4375 L 9.53125 -10.4375 L 9.53125 0 L 7.828125 0 Z M 7.796875 -1.03125 "/></g></g></g><g fill="#1982ff" fill-opacity="1"><g transform="translate(293.688242, 236.900711)"><g><path d="M 10.171875 -5.09375 C 10.171875 -3.507812 9.804688 -2.234375 9.078125 -1.265625 C 8.347656 -0.296875 7.363281 0.1875 6.125 0.1875 C 4.851562 0.1875 3.859375 -0.210938 3.140625 -1.015625 L 3.140625 4.015625 L 1.34375 4.015625 L 1.34375 -10.4375 L 2.984375 -10.4375 L 3.0625 -9.28125 C 3.789062 -10.175781 4.800781 -10.625 6.09375 -10.625 C 7.34375 -10.625 8.332031 -10.148438 9.0625 -9.203125 C 9.800781 -8.265625 10.171875 -6.953125 10.171875 -5.265625 Z M 8.375 -5.296875 C 8.375 -6.472656 8.125 -7.398438 7.625 -8.078125 C 7.125 -8.765625 6.4375 -9.109375 5.5625 -9.109375 C 4.476562 -9.109375 3.671875 -8.628906 3.140625 -7.671875 L 3.140625 -2.6875 C 3.671875 -1.738281 4.484375 -1.265625 5.578125 -1.265625 C 6.429688 -1.265625 7.109375 -1.601562 7.609375 -2.28125 C 8.117188 -2.957031 8.375 -3.960938 8.375 -5.296875 Z M 8.375 -5.296875 "/></g></g></g><g fill="#1982ff" fill-opacity="1"><g transform="translate(304.7665, 236.900711)"><g><path d="M 7.796875 0 C 7.691406 -0.207031 7.609375 -0.570312 7.546875 -1.09375 C 6.710938 -0.238281 5.722656 0.1875 4.578125 0.1875 C 3.546875 0.1875 2.695312 -0.0976562 2.03125 -0.671875 C 1.375 -1.253906 1.046875 -1.992188 1.046875 -2.890625 C 1.046875 -3.972656 1.457031 -4.816406 2.28125 -5.421875 C 3.113281 -6.023438 4.28125 -6.328125 5.78125 -6.328125 L 7.515625 -6.328125 L 7.515625 -7.140625 C 7.515625 -7.765625 7.328125 -8.257812 6.953125 -8.625 C 6.578125 -9 6.023438 -9.1875 5.296875 -9.1875 C 4.660156 -9.1875 4.128906 -9.023438 3.703125 -8.703125 C 3.273438 -8.378906 3.0625 -7.992188 3.0625 -7.546875 L 1.265625 -7.546875 C 1.265625 -8.066406 1.445312 -8.566406 1.8125 -9.046875 C 2.1875 -9.535156 2.6875 -9.921875 3.3125 -10.203125 C 3.945312 -10.484375 4.644531 -10.625 5.40625 -10.625 C 6.613281 -10.625 7.554688 -10.320312 8.234375 -9.71875 C 8.921875 -9.125 9.273438 -8.300781 9.296875 -7.25 L 9.296875 -2.4375 C 9.296875 -1.476562 9.414062 -0.71875 9.65625 -0.15625 L 9.65625 0 Z M 4.828125 -1.359375 C 5.390625 -1.359375 5.921875 -1.503906 6.421875 -1.796875 C 6.921875 -2.085938 7.285156 -2.460938 7.515625 -2.921875 L 7.515625 -5.0625 L 6.109375 -5.0625 C 3.921875 -5.0625 2.828125 -4.421875 2.828125 -3.140625 C 2.828125 -2.585938 3.015625 -2.148438 3.390625 -1.828125 C 3.765625 -1.515625 4.242188 -1.359375 4.828125 -1.359375 Z M 4.828125 -1.359375 "/></g></g></g><g fill="#1982ff" fill-opacity="1"><g transform="translate(315.507294, 236.900711)"><g><path d="M 3.03125 -10.4375 L 3.09375 -9.125 C 3.894531 -10.125 4.9375 -10.625 6.21875 -10.625 C 8.425781 -10.625 9.539062 -9.378906 9.5625 -6.890625 L 9.5625 0 L 7.765625 0 L 7.765625 -6.90625 C 7.765625 -7.65625 7.59375 -8.207031 7.25 -8.5625 C 6.914062 -8.925781 6.394531 -9.109375 5.6875 -9.109375 C 5.101562 -9.109375 4.59375 -8.953125 4.15625 -8.640625 C 3.71875 -8.335938 3.378906 -7.9375 3.140625 -7.4375 L 3.140625 0 L 1.34375 0 L 1.34375 -10.4375 Z M 3.03125 -10.4375 "/></g></g></g><g fill="#1982ff" fill-opacity="1"><g transform="translate(326.402355, 236.900711)"><g><path d="M 5.53125 -1.265625 C 6.164062 -1.265625 6.722656 -1.457031 7.203125 -1.84375 C 7.679688 -2.226562 7.945312 -2.707031 8 -3.28125 L 9.6875 -3.28125 C 9.65625 -2.6875 9.445312 -2.117188 9.0625 -1.578125 C 8.6875 -1.035156 8.179688 -0.601562 7.546875 -0.28125 C 6.910156 0.03125 6.238281 0.1875 5.53125 0.1875 C 4.113281 0.1875 2.984375 -0.285156 2.140625 -1.234375 C 1.304688 -2.179688 0.890625 -3.476562 0.890625 -5.125 L 0.890625 -5.421875 C 0.890625 -6.429688 1.070312 -7.332031 1.4375 -8.125 C 1.8125 -8.914062 2.347656 -9.53125 3.046875 -9.96875 C 3.742188 -10.40625 4.570312 -10.625 5.53125 -10.625 C 6.695312 -10.625 7.664062 -10.273438 8.4375 -9.578125 C 9.21875 -8.878906 9.632812 -7.96875 9.6875 -6.84375 L 8 -6.84375 C 7.945312 -7.519531 7.6875 -8.070312 7.21875 -8.5 C 6.757812 -8.9375 6.195312 -9.15625 5.53125 -9.15625 C 4.625 -9.15625 3.921875 -8.828125 3.421875 -8.171875 C 2.921875 -7.523438 2.671875 -6.585938 2.671875 -5.359375 L 2.671875 -5.015625 C 2.671875 -3.816406 2.914062 -2.890625 3.40625 -2.234375 C 3.90625 -1.585938 4.613281 -1.265625 5.53125 -1.265625 Z M 5.828125 0.09375 L 5.703125 0.59375 C 6.691406 0.769531 7.1875 1.328125 7.1875 2.265625 C 7.1875 2.890625 6.925781 3.378906 6.40625 3.734375 C 5.894531 4.097656 5.179688 4.28125 4.265625 4.28125 L 4.203125 3.25 C 4.703125 3.25 5.09375 3.164062 5.375 3 C 5.65625 2.832031 5.796875 2.597656 5.796875 2.296875 C 5.796875 2.015625 5.691406 1.804688 5.484375 1.671875 C 5.285156 1.535156 4.867188 1.441406 4.234375 1.390625 L 4.546875 0.09375 Z M 5.828125 0.09375 "/></g></g></g><g fill="#1982ff" fill-opacity="1"><g transform="translate(336.7382, 236.900711)"><g><path d="M 7.796875 0 C 7.691406 -0.207031 7.609375 -0.570312 7.546875 -1.09375 C 6.710938 -0.238281 5.722656 0.1875 4.578125 0.1875 C 3.546875 0.1875 2.695312 -0.0976562 2.03125 -0.671875 C 1.375 -1.253906 1.046875 -1.992188 1.046875 -2.890625 C 1.046875 -3.972656 1.457031 -4.816406 2.28125 -5.421875 C 3.113281 -6.023438 4.28125 -6.328125 5.78125 -6.328125 L 7.515625 -6.328125 L 7.515625 -7.140625 C 7.515625 -7.765625 7.328125 -8.257812 6.953125 -8.625 C 6.578125 -9 6.023438 -9.1875 5.296875 -9.1875 C 4.660156 -9.1875 4.128906 -9.023438 3.703125 -8.703125 C 3.273438 -8.378906 3.0625 -7.992188 3.0625 -7.546875 L 1.265625 -7.546875 C 1.265625 -8.066406 1.445312 -8.566406 1.8125 -9.046875 C 2.1875 -9.535156 2.6875 -9.921875 3.3125 -10.203125 C 3.945312 -10.484375 4.644531 -10.625 5.40625 -10.625 C 6.613281 -10.625 7.554688 -10.320312 8.234375 -9.71875 C 8.921875 -9.125 9.273438 -8.300781 9.296875 -7.25 L 9.296875 -2.4375 C 9.296875 -1.476562 9.414062 -0.71875 9.65625 -0.15625 L 9.65625 0 Z M 4.828125 -1.359375 C 5.390625 -1.359375 5.921875 -1.503906 6.421875 -1.796875 C 6.921875 -2.085938 7.285156 -2.460938 7.515625 -2.921875 L 7.515625 -5.0625 L 6.109375 -5.0625 C 3.921875 -5.0625 2.828125 -4.421875 2.828125 -3.140625 C 2.828125 -2.585938 3.015625 -2.148438 3.390625 -1.828125 C 3.765625 -1.515625 4.242188 -1.359375 4.828125 -1.359375 Z M 4.828125 -1.359375 "/></g></g></g><g fill="#1982ff" fill-opacity="1"><g transform="translate(170.371546, 256.40071)"><g><path d="M 9.390625 -3.671875 L 3.5 -3.671875 L 2.171875 0 L 0.265625 0 L 5.625 -14.046875 L 7.25 -14.046875 L 12.625 0 L 10.71875 0 Z M 4.0625 -5.1875 L 8.828125 -5.1875 L 6.4375 -11.75 Z M 4.0625 -5.1875 "/></g></g></g><g fill="#1982ff" fill-opacity="1"><g transform="translate(183.252786, 256.40071)"><g><path d="M 3.03125 -10.4375 L 3.09375 -9.125 C 3.894531 -10.125 4.9375 -10.625 6.21875 -10.625 C 8.425781 -10.625 9.539062 -9.378906 9.5625 -6.890625 L 9.5625 0 L 7.765625 0 L 7.765625 -6.90625 C 7.765625 -7.65625 7.59375 -8.207031 7.25 -8.5625 C 6.914062 -8.925781 6.394531 -9.109375 5.6875 -9.109375 C 5.101562 -9.109375 4.59375 -8.953125 4.15625 -8.640625 C 3.71875 -8.335938 3.378906 -7.9375 3.140625 -7.4375 L 3.140625 0 L 1.34375 0 L 1.34375 -10.4375 Z M 3.03125 -10.4375 "/></g></g></g><g fill="#1982ff" fill-opacity="1"><g transform="translate(194.147847, 256.40071)"><g><path d="M 0.921875 -5.296875 C 0.921875 -6.929688 1.296875 -8.226562 2.046875 -9.1875 C 2.804688 -10.144531 3.804688 -10.625 5.046875 -10.625 C 6.316406 -10.625 7.3125 -10.175781 8.03125 -9.28125 L 8.109375 -10.4375 L 9.734375 -10.4375 L 9.734375 -0.25 C 9.734375 1.101562 9.332031 2.164062 8.53125 2.9375 C 7.738281 3.71875 6.664062 4.109375 5.3125 4.109375 C 4.5625 4.109375 3.828125 3.945312 3.109375 3.625 C 2.390625 3.300781 1.835938 2.863281 1.453125 2.3125 L 2.375 1.234375 C 3.144531 2.179688 4.082031 2.65625 5.1875 2.65625 C 6.050781 2.65625 6.726562 2.410156 7.21875 1.921875 C 7.707031 1.429688 7.953125 0.742188 7.953125 -0.140625 L 7.953125 -1.046875 C 7.234375 -0.222656 6.257812 0.1875 5.03125 0.1875 C 3.800781 0.1875 2.804688 -0.300781 2.046875 -1.28125 C 1.296875 -2.269531 0.921875 -3.609375 0.921875 -5.296875 Z M 2.71875 -5.09375 C 2.71875 -3.925781 2.957031 -3.003906 3.4375 -2.328125 C 3.925781 -1.660156 4.601562 -1.328125 5.46875 -1.328125 C 6.59375 -1.328125 7.421875 -1.835938 7.953125 -2.859375 L 7.953125 -7.625 C 7.398438 -8.613281 6.578125 -9.109375 5.484375 -9.109375 C 4.617188 -9.109375 3.941406 -8.769531 3.453125 -8.09375 C 2.960938 -7.425781 2.71875 -6.425781 2.71875 -5.09375 Z M 2.71875 -5.09375 "/></g></g></g><g fill="#1982ff" fill-opacity="1"><g transform="translate(205.226105, 256.40071)"><g><path d="M 0.875 -5.3125 C 0.875 -6.332031 1.070312 -7.25 1.46875 -8.0625 C 1.875 -8.882812 2.4375 -9.515625 3.15625 -9.953125 C 3.875 -10.398438 4.691406 -10.625 5.609375 -10.625 C 7.035156 -10.625 8.1875 -10.128906 9.0625 -9.140625 C 9.9375 -8.160156 10.375 -6.859375 10.375 -5.234375 L 10.375 -5.09375 C 10.375 -4.082031 10.175781 -3.171875 9.78125 -2.359375 C 9.394531 -1.554688 8.84375 -0.929688 8.125 -0.484375 C 7.40625 -0.0351562 6.570312 0.1875 5.625 0.1875 C 4.21875 0.1875 3.070312 -0.300781 2.1875 -1.28125 C 1.3125 -2.269531 0.875 -3.570312 0.875 -5.1875 Z M 2.671875 -5.09375 C 2.671875 -3.9375 2.9375 -3.007812 3.46875 -2.3125 C 4.007812 -1.613281 4.726562 -1.265625 5.625 -1.265625 C 6.53125 -1.265625 7.25 -1.617188 7.78125 -2.328125 C 8.320312 -3.035156 8.59375 -4.03125 8.59375 -5.3125 C 8.59375 -6.457031 8.320312 -7.382812 7.78125 -8.09375 C 7.238281 -8.800781 6.515625 -9.15625 5.609375 -9.15625 C 4.734375 -9.15625 4.023438 -8.804688 3.484375 -8.109375 C 2.941406 -7.410156 2.671875 -6.40625 2.671875 -5.09375 Z M 2.671875 -5.09375 "/></g></g></g><g fill="#1982ff" fill-opacity="1"><g transform="translate(216.487548, 256.40071)"><g><path d="M 3.28125 0 L 1.5 0 L 1.5 -14.8125 L 3.28125 -14.8125 Z M 3.28125 0 "/></g></g></g><g fill="#1982ff" fill-opacity="1"><g transform="translate(221.279452, 256.40071)"><g><path d="M 7.796875 0 C 7.691406 -0.207031 7.609375 -0.570312 7.546875 -1.09375 C 6.710938 -0.238281 5.722656 0.1875 4.578125 0.1875 C 3.546875 0.1875 2.695312 -0.0976562 2.03125 -0.671875 C 1.375 -1.253906 1.046875 -1.992188 1.046875 -2.890625 C 1.046875 -3.972656 1.457031 -4.816406 2.28125 -5.421875 C 3.113281 -6.023438 4.28125 -6.328125 5.78125 -6.328125 L 7.515625 -6.328125 L 7.515625 -7.140625 C 7.515625 -7.765625 7.328125 -8.257812 6.953125 -8.625 C 6.578125 -9 6.023438 -9.1875 5.296875 -9.1875 C 4.660156 -9.1875 4.128906 -9.023438 3.703125 -8.703125 C 3.273438 -8.378906 3.0625 -7.992188 3.0625 -7.546875 L 1.265625 -7.546875 C 1.265625 -8.066406 1.445312 -8.566406 1.8125 -9.046875 C 2.1875 -9.535156 2.6875 -9.921875 3.3125 -10.203125 C 3.945312 -10.484375 4.644531 -10.625 5.40625 -10.625 C 6.613281 -10.625 7.554688 -10.320312 8.234375 -9.71875 C 8.921875 -9.125 9.273438 -8.300781 9.296875 -7.25 L 9.296875 -2.4375 C 9.296875 -1.476562 9.414062 -0.71875 9.65625 -0.15625 L 9.65625 0 Z M 4.828125 -1.359375 C 5.390625 -1.359375 5.921875 -1.503906 6.421875 -1.796875 C 6.921875 -2.085938 7.285156 -2.460938 7.515625 -2.921875 L 7.515625 -5.0625 L 6.109375 -5.0625 C 3.921875 -5.0625 2.828125 -4.421875 2.828125 -3.140625 C 2.828125 -2.585938 3.015625 -2.148438 3.390625 -1.828125 C 3.765625 -1.515625 4.242188 -1.359375 4.828125 -1.359375 Z M 4.828125 -1.359375 "/></g></g></g><g fill="#1982ff" fill-opacity="1"><g transform="translate(232.020247, 256.40071)"><g><path d="M 3.03125 -10.4375 L 3.09375 -9.125 C 3.894531 -10.125 4.9375 -10.625 6.21875 -10.625 C 8.425781 -10.625 9.539062 -9.378906 9.5625 -6.890625 L 9.5625 0 L 7.765625 0 L 7.765625 -6.90625 C 7.765625 -7.65625 7.59375 -8.207031 7.25 -8.5625 C 6.914062 -8.925781 6.394531 -9.109375 5.6875 -9.109375 C 5.101562 -9.109375 4.59375 -8.953125 4.15625 -8.640625 C 3.71875 -8.335938 3.378906 -7.9375 3.140625 -7.4375 L 3.140625 0 L 1.34375 0 L 1.34375 -10.4375 Z M 3.03125 -10.4375 "/></g></g></g><g fill="#1982ff" fill-opacity="1"><g transform="translate(242.915308, 256.40071)"><g><path d="M 0.875 -5.3125 C 0.875 -6.332031 1.070312 -7.25 1.46875 -8.0625 C 1.875 -8.882812 2.4375 -9.515625 3.15625 -9.953125 C 3.875 -10.398438 4.691406 -10.625 5.609375 -10.625 C 7.035156 -10.625 8.1875 -10.128906 9.0625 -9.140625 C 9.9375 -8.160156 10.375 -6.859375 10.375 -5.234375 L 10.375 -5.09375 C 10.375 -4.082031 10.175781 -3.171875 9.78125 -2.359375 C 9.394531 -1.554688 8.84375 -0.929688 8.125 -0.484375 C 7.40625 -0.0351562 6.570312 0.1875 5.625 0.1875 C 4.21875 0.1875 3.070312 -0.300781 2.1875 -1.28125 C 1.3125 -2.269531 0.875 -3.570312 0.875 -5.1875 Z M 2.671875 -5.09375 C 2.671875 -3.9375 2.9375 -3.007812 3.46875 -2.3125 C 4.007812 -1.613281 4.726562 -1.265625 5.625 -1.265625 C 6.53125 -1.265625 7.25 -1.617188 7.78125 -2.328125 C 8.320312 -3.035156 8.59375 -4.03125 8.59375 -5.3125 C 8.59375 -6.457031 8.320312 -7.382812 7.78125 -8.09375 C 7.238281 -8.800781 6.515625 -9.15625 5.609375 -9.15625 C 4.734375 -9.15625 4.023438 -8.804688 3.484375 -8.109375 C 2.941406 -7.410156 2.671875 -6.40625 2.671875 -5.09375 Z M 2.671875 -5.09375 "/></g></g></g></svg>