<svg xmlns="http://www.w3.org/2000/svg" xmlns:xlink="http://www.w3.org/1999/xlink" width="500" zoomAndPan="magnify" viewBox="0 0 375 374.999991" height="500" preserveAspectRatio="xMidYMid meet" version="1.0"><defs><g/><clipPath id="72f39f9a84"><path d="M 187 188 L 253 188 L 253 233.933594 L 187 233.933594 Z M 187 188 " clip-rule="nonzero"/></clipPath></defs><path fill="#f68712" d="M 167.484375 113.8125 C 165.015625 115.367188 161.820312 116.863281 157.785156 118.210938 C 148.820312 121.207031 139.378906 119.710938 130.40625 122.101562 C 128.136719 122.707031 124.761719 124.324219 122.714844 126.4375 C 122.714844 126.4375 128.972656 114.550781 147.210938 107.449219 C 148.855469 106.808594 150.597656 106.207031 152.445312 105.65625 C 163.644531 102.3125 160.488281 97.605469 155.585938 98.988281 C 155.585938 98.988281 159.644531 96.125 165.402344 96.34375 C 174.078125 96.675781 179.867188 106.015625 167.484375 113.8125 " fill-opacity="1" fill-rule="nonzero"/><path fill="#f68712" d="M 212.035156 113.886719 C 210.234375 121.496094 204.707031 128.179688 198.464844 133.546875 C 191.558594 139.496094 183.773438 143.828125 179.210938 146.011719 C 149.441406 160.28125 119.566406 154.933594 116.019531 169.480469 C 116.019531 169.480469 108.933594 156.398438 125.648438 147.128906 C 134.847656 142.027344 140.007812 139.390625 161.492188 131.582031 C 167.980469 129.222656 175.902344 126.34375 182.910156 121.734375 C 187.6875 118.59375 192.042969 114.648438 195.238281 109.515625 C 200.761719 100.628906 193.789062 91.808594 181.164062 91.0625 C 200.390625 89.984375 215.300781 100.113281 212.035156 113.886719 " fill-opacity="1" fill-rule="nonzero"/><path fill="#3871c1" d="M 222.945312 166.699219 C 216.75 171.492188 209.09375 176.015625 199.890625 180.09375 C 164.535156 195.757812 135.164062 192.328125 128.320312 207.308594 C 128.320312 207.308594 118.960938 187.664062 151.59375 177.015625 C 180.289062 167.65625 200.042969 158.648438 213.023438 150.066406 C 241.339844 131.359375 237.449219 114.675781 223.839844 100.78125 C 224.652344 101.273438 225.429688 101.753906 226.132812 102.203125 C 249.1875 118.402344 250.699219 145.242188 222.945312 166.699219 " fill-opacity="1" fill-rule="nonzero"/><path fill="#40b93c" d="M 251.308594 180.761719 C 247.273438 187.824219 241.359375 193.722656 234.28125 198.71875 C 225.789062 204.707031 215.609375 209.394531 204.964844 213.210938 C 190.988281 218.230469 156.65625 222.402344 155.546875 230.421875 C 155.546875 230.421875 151.167969 222.265625 166.699219 214.316406 C 184.527344 205.195312 203.296875 198.074219 220.996094 188.671875 C 222.722656 187.753906 226.039062 186.082031 229.933594 183.597656 C 242.03125 175.902344 259.722656 160.460938 252.824219 135.957031 C 253.078125 136.339844 265.6875 155.605469 251.308594 180.761719 " fill-opacity="1" fill-rule="nonzero"/><g clip-path="url(#72f39f9a84)"><path fill="#40b93c" d="M 252.59375 188.183594 C 252.59375 188.183594 251.882812 198.742188 237.007812 212.371094 C 236.96875 212.410156 236.925781 212.449219 236.886719 212.484375 C 228.921875 219.753906 219.324219 225.007812 211.136719 228.457031 C 198.535156 233.761719 187.425781 233.851562 187.308594 233.886719 C 201.203125 229.53125 221.5 218.03125 235.949219 206.464844 C 244.058594 199.972656 250.328125 193.464844 252.59375 188.183594 " fill-opacity="1" fill-rule="nonzero"/></g><path fill="#fbc108" d="M 167.484375 113.8125 C 160.433594 110.871094 153.550781 108.84375 147.210938 107.449219 C 148.855469 106.808594 150.597656 106.207031 152.445312 105.65625 C 163.644531 102.3125 160.488281 97.605469 155.585938 98.988281 C 155.585938 98.988281 159.644531 96.125 165.402344 96.34375 C 174.078125 96.675781 179.867188 106.015625 167.484375 113.8125 " fill-opacity="1" fill-rule="nonzero"/><path fill="#fbc108" d="M 212.035156 113.886719 C 210.234375 121.496094 204.707031 128.179688 198.464844 133.546875 C 193.433594 128.917969 188.199219 125.019531 182.910156 121.734375 C 187.6875 118.59375 192.042969 114.648438 195.238281 109.515625 C 200.761719 100.628906 193.789062 91.808594 181.164062 91.0625 C 200.390625 89.984375 215.300781 100.113281 212.035156 113.886719 " fill-opacity="1" fill-rule="nonzero"/><path fill="#00adef" d="M 222.945312 166.699219 C 219.921875 160.578125 216.589844 155.050781 213.023438 150.066406 C 241.339844 131.359375 237.449219 114.675781 223.839844 100.78125 C 224.652344 101.273438 225.429688 101.753906 226.132812 102.203125 C 249.1875 118.402344 250.699219 145.242188 222.945312 166.699219 " fill-opacity="1" fill-rule="nonzero"/><path fill="#80cc28" d="M 252.59375 188.183594 C 252.59375 188.183594 251.882812 198.742188 237.007812 212.371094 C 236.679688 210.367188 236.328125 208.394531 235.949219 206.464844 C 244.058594 199.972656 250.328125 193.464844 252.59375 188.183594 " fill-opacity="1" fill-rule="nonzero"/><path fill="#80cc28" d="M 234.28125 198.71875 C 233.007812 193.382812 231.550781 188.351562 229.933594 183.597656 C 242.03125 175.902344 259.722656 160.460938 252.824219 135.957031 C 253.078125 136.339844 265.6875 155.605469 251.308594 180.761719 C 247.273438 187.824219 241.359375 193.722656 234.28125 198.71875 " fill-opacity="1" fill-rule="nonzero"/><g fill="#000000" fill-opacity="1"><g transform="translate(113.710669, 267.738177)"><g><path d="M 14.4375 -9.390625 C 15.625 -9.128906 16.539062 -8.613281 17.1875 -7.84375 C 17.84375 -7.070312 18.171875 -6.078125 18.171875 -4.859375 C 18.171875 -3.296875 17.59375 -2.09375 16.4375 -1.25 C 15.289062 -0.414062 13.59375 0 11.34375 0 L 2.96875 0 L 2.96875 -18.203125 L 10.8125 -18.203125 C 12.84375 -18.203125 14.414062 -17.789062 15.53125 -16.96875 C 16.65625 -16.15625 17.21875 -15.003906 17.21875 -13.515625 C 17.21875 -12.515625 16.96875 -11.660156 16.46875 -10.953125 C 15.976562 -10.253906 15.300781 -9.734375 14.4375 -9.390625 Z M 4.890625 -16.609375 L 4.890625 -10.015625 L 10.6875 -10.015625 C 12.15625 -10.015625 13.285156 -10.296875 14.078125 -10.859375 C 14.878906 -11.421875 15.28125 -12.238281 15.28125 -13.3125 C 15.28125 -14.382812 14.878906 -15.203125 14.078125 -15.765625 C 13.285156 -16.328125 12.15625 -16.609375 10.6875 -16.609375 Z M 11.3125 -1.59375 C 12.9375 -1.59375 14.164062 -1.867188 15 -2.421875 C 15.832031 -2.972656 16.25 -3.835938 16.25 -5.015625 C 16.25 -7.285156 14.601562 -8.421875 11.3125 -8.421875 L 4.890625 -8.421875 L 4.890625 -1.59375 Z M 11.3125 -1.59375 "/></g></g></g><g fill="#000000" fill-opacity="1"><g transform="translate(131.956791, 267.738177)"><g><path d="M 14.375 -4.859375 L 4.234375 -4.859375 L 2.046875 0 L 0.046875 0 L 8.375 -18.203125 L 10.265625 -18.203125 L 18.59375 0 L 16.5625 0 Z M 13.671875 -6.421875 L 9.3125 -16.203125 L 4.9375 -6.421875 Z M 13.671875 -6.421875 "/></g></g></g><g fill="#000000" fill-opacity="1"><g transform="translate(149.241198, 267.738177)"><g><path d="M 18.171875 -18.203125 L 18.171875 0 L 16.59375 0 L 4.890625 -14.765625 L 4.890625 0 L 2.96875 0 L 2.96875 -18.203125 L 4.546875 -18.203125 L 16.28125 -3.4375 L 16.28125 -18.203125 Z M 18.171875 -18.203125 "/></g></g></g><g fill="#000000" fill-opacity="1"><g transform="translate(169.020864, 267.738177)"><g><path d="M 10.875 0.15625 C 9.0625 0.15625 7.429688 -0.238281 5.984375 -1.03125 C 4.546875 -1.832031 3.414062 -2.9375 2.59375 -4.34375 C 1.769531 -5.757812 1.359375 -7.34375 1.359375 -9.09375 C 1.359375 -10.84375 1.769531 -12.425781 2.59375 -13.84375 C 3.414062 -15.257812 4.550781 -16.363281 6 -17.15625 C 7.457031 -17.957031 9.085938 -18.359375 10.890625 -18.359375 C 12.242188 -18.359375 13.492188 -18.128906 14.640625 -17.671875 C 15.785156 -17.222656 16.753906 -16.566406 17.546875 -15.703125 L 16.328125 -14.484375 C 14.910156 -15.921875 13.117188 -16.640625 10.953125 -16.640625 C 9.503906 -16.640625 8.191406 -16.304688 7.015625 -15.640625 C 5.835938 -14.984375 4.914062 -14.082031 4.25 -12.9375 C 3.582031 -11.800781 3.25 -10.519531 3.25 -9.09375 C 3.25 -7.675781 3.582031 -6.394531 4.25 -5.25 C 4.914062 -4.101562 5.835938 -3.203125 7.015625 -2.546875 C 8.191406 -1.890625 9.503906 -1.5625 10.953125 -1.5625 C 13.128906 -1.5625 14.921875 -2.289062 16.328125 -3.75 L 17.546875 -2.515625 C 16.753906 -1.648438 15.78125 -0.988281 14.625 -0.53125 C 13.46875 -0.0703125 12.21875 0.15625 10.875 0.15625 Z M 10.875 0.15625 "/></g></g></g><g fill="#000000" fill-opacity="1"><g transform="translate(186.35726, 267.738177)"><g><path d="M 10.921875 0.15625 C 9.117188 0.15625 7.484375 -0.242188 6.015625 -1.046875 C 4.554688 -1.859375 3.414062 -2.960938 2.59375 -4.359375 C 1.769531 -5.765625 1.359375 -7.34375 1.359375 -9.09375 C 1.359375 -10.84375 1.769531 -12.421875 2.59375 -13.828125 C 3.414062 -15.234375 4.554688 -16.335938 6.015625 -17.140625 C 7.484375 -17.953125 9.117188 -18.359375 10.921875 -18.359375 C 12.722656 -18.359375 14.347656 -17.957031 15.796875 -17.15625 C 17.242188 -16.363281 18.382812 -15.257812 19.21875 -13.84375 C 20.050781 -12.425781 20.46875 -10.84375 20.46875 -9.09375 C 20.46875 -7.34375 20.050781 -5.757812 19.21875 -4.34375 C 18.382812 -2.9375 17.242188 -1.832031 15.796875 -1.03125 C 14.347656 -0.238281 12.722656 0.15625 10.921875 0.15625 Z M 10.921875 -1.5625 C 12.359375 -1.5625 13.65625 -1.882812 14.8125 -2.53125 C 15.976562 -3.1875 16.890625 -4.085938 17.546875 -5.234375 C 18.203125 -6.390625 18.53125 -7.675781 18.53125 -9.09375 C 18.53125 -10.519531 18.203125 -11.804688 17.546875 -12.953125 C 16.890625 -14.109375 15.976562 -15.007812 14.8125 -15.65625 C 13.65625 -16.3125 12.359375 -16.640625 10.921875 -16.640625 C 9.484375 -16.640625 8.175781 -16.3125 7 -15.65625 C 5.832031 -15.007812 4.914062 -14.109375 4.25 -12.953125 C 3.582031 -11.804688 3.25 -10.519531 3.25 -9.09375 C 3.25 -7.675781 3.582031 -6.390625 4.25 -5.234375 C 4.914062 -4.085938 5.832031 -3.1875 7 -2.53125 C 8.175781 -1.882812 9.484375 -1.5625 10.921875 -1.5625 Z M 10.921875 -1.5625 "/></g></g></g><g fill="#323232" fill-opacity="1"><g transform="translate(105.785148, 286.49417)"><g><path d="M 0.765625 -5.78125 L 3.0625 -5.78125 C 3.789062 -5.78125 4.351562 -5.609375 4.75 -5.265625 C 5.15625 -4.921875 5.359375 -4.4375 5.359375 -3.8125 C 5.359375 -3.15625 5.15625 -2.644531 4.75 -2.28125 C 4.351562 -1.925781 3.789062 -1.75 3.0625 -1.75 L 1.734375 -1.75 L 1.734375 0 L 0.765625 0 Z M 1.734375 -4.90625 L 1.734375 -2.625 L 3.03125 -2.625 C 3.957031 -2.625 4.421875 -3.007812 4.421875 -3.78125 C 4.421875 -4.53125 3.957031 -4.90625 3.03125 -4.90625 Z M 1.734375 -4.90625 "/></g></g></g><g fill="#323232" fill-opacity="1"><g transform="translate(116.35162, 286.49417)"><g><path d="M 1.15625 -4.96875 C 1.75 -5.53125 2.476562 -5.8125 3.34375 -5.8125 C 4.207031 -5.8125 4.9375 -5.53125 5.53125 -4.96875 C 6.125 -4.414062 6.421875 -3.722656 6.421875 -2.890625 C 6.421875 -2.066406 6.125 -1.367188 5.53125 -0.796875 C 4.9375 -0.234375 4.207031 0.046875 3.34375 0.046875 C 2.476562 0.046875 1.75 -0.234375 1.15625 -0.796875 C 0.570312 -1.367188 0.28125 -2.066406 0.28125 -2.890625 C 0.28125 -3.722656 0.570312 -4.414062 1.15625 -4.96875 Z M 3.359375 -4.9375 C 2.785156 -4.9375 2.289062 -4.738281 1.875 -4.34375 C 1.46875 -3.945312 1.265625 -3.460938 1.265625 -2.890625 C 1.265625 -2.316406 1.46875 -1.828125 1.875 -1.421875 C 2.289062 -1.023438 2.78125 -0.828125 3.34375 -0.828125 C 3.914062 -0.828125 4.398438 -1.023438 4.796875 -1.421875 C 5.203125 -1.828125 5.40625 -2.316406 5.40625 -2.890625 C 5.40625 -3.460938 5.203125 -3.945312 4.796875 -4.34375 C 4.398438 -4.738281 3.921875 -4.9375 3.359375 -4.9375 Z M 3.359375 -4.9375 "/></g></g></g><g fill="#323232" fill-opacity="1"><g transform="translate(128.050809, 286.49417)"><g><path d="M 5.671875 -5.78125 L 5.671875 -2.390625 C 5.671875 -1.640625 5.445312 -1.046875 5 -0.609375 C 4.5625 -0.171875 3.945312 0.046875 3.15625 0.046875 C 2.375 0.046875 1.757812 -0.171875 1.3125 -0.609375 C 0.863281 -1.046875 0.640625 -1.640625 0.640625 -2.390625 L 0.640625 -5.78125 L 1.625 -5.78125 L 1.625 -2.390625 C 1.625 -1.910156 1.757812 -1.53125 2.03125 -1.25 C 2.3125 -0.96875 2.691406 -0.828125 3.171875 -0.828125 C 3.648438 -0.828125 4.023438 -0.960938 4.296875 -1.234375 C 4.566406 -1.515625 4.703125 -1.898438 4.703125 -2.390625 L 4.703125 -5.78125 Z M 5.671875 -5.78125 "/></g></g></g><g fill="#323232" fill-opacity="1"><g transform="translate(139.36967, 286.49417)"><g><path d="M 0.765625 -5.78125 L 3.0625 -5.78125 C 3.789062 -5.78125 4.351562 -5.609375 4.75 -5.265625 C 5.15625 -4.921875 5.359375 -4.4375 5.359375 -3.8125 C 5.359375 -3.15625 5.15625 -2.644531 4.75 -2.28125 C 4.351562 -1.925781 3.789062 -1.75 3.0625 -1.75 L 1.734375 -1.75 L 1.734375 0 L 0.765625 0 Z M 1.734375 -4.90625 L 1.734375 -2.625 L 3.03125 -2.625 C 3.957031 -2.625 4.421875 -3.007812 4.421875 -3.78125 C 4.421875 -4.53125 3.957031 -4.90625 3.03125 -4.90625 Z M 1.734375 -4.90625 "/></g></g></g><g fill="#323232" fill-opacity="1"><g transform="translate(149.936144, 286.49417)"><g><path d="M 4.5 -1.3125 L 1.578125 -1.3125 L 1.03125 0 L 0.015625 0 L 2.5625 -5.78125 L 3.5625 -5.78125 L 6.09375 0 L 5.046875 0 Z M 4.125 -2.171875 L 3.03125 -4.75 L 1.9375 -2.171875 Z M 4.125 -2.171875 "/></g></g></g><g fill="#323232" fill-opacity="1"><g transform="translate(161.040044, 286.49417)"><g><path d="M 4.4375 0 L 3.375 -1.75 C 3.320312 -1.75 3.234375 -1.75 3.109375 -1.75 L 1.734375 -1.75 L 1.734375 0 L 0.765625 0 L 0.765625 -5.78125 L 3.109375 -5.78125 C 3.847656 -5.78125 4.421875 -5.609375 4.828125 -5.265625 C 5.234375 -4.921875 5.4375 -4.4375 5.4375 -3.8125 C 5.4375 -3.34375 5.332031 -2.945312 5.125 -2.625 C 4.914062 -2.3125 4.617188 -2.082031 4.234375 -1.9375 L 5.53125 0 Z M 1.734375 -2.625 L 3.109375 -2.625 C 4.046875 -2.625 4.515625 -3.007812 4.515625 -3.78125 C 4.515625 -4.53125 4.046875 -4.90625 3.109375 -4.90625 L 1.734375 -4.90625 Z M 1.734375 -2.625 "/></g></g></g><g fill="#323232" fill-opacity="1"><g transform="translate(172.019919, 286.49417)"><g/></g></g><g fill="#323232" fill-opacity="1"><g transform="translate(179.155176, 286.49417)"><g><path d="M 0.765625 -5.78125 L 3.0625 -5.78125 C 3.789062 -5.78125 4.351562 -5.609375 4.75 -5.265625 C 5.15625 -4.921875 5.359375 -4.4375 5.359375 -3.8125 C 5.359375 -3.15625 5.15625 -2.644531 4.75 -2.28125 C 4.351562 -1.925781 3.789062 -1.75 3.0625 -1.75 L 1.734375 -1.75 L 1.734375 0 L 0.765625 0 Z M 1.734375 -4.90625 L 1.734375 -2.625 L 3.03125 -2.625 C 3.957031 -2.625 4.421875 -3.007812 4.421875 -3.78125 C 4.421875 -4.53125 3.957031 -4.90625 3.03125 -4.90625 Z M 1.734375 -4.90625 "/></g></g></g><g fill="#323232" fill-opacity="1"><g transform="translate(189.721649, 286.49417)"><g><path d="M 4.5 -1.3125 L 1.578125 -1.3125 L 1.03125 0 L 0.015625 0 L 2.5625 -5.78125 L 3.5625 -5.78125 L 6.09375 0 L 5.046875 0 Z M 4.125 -2.171875 L 3.03125 -4.75 L 1.9375 -2.171875 Z M 4.125 -2.171875 "/></g></g></g><g fill="#323232" fill-opacity="1"><g transform="translate(200.825549, 286.49417)"><g><path d="M 4.4375 0 L 3.375 -1.75 C 3.320312 -1.75 3.234375 -1.75 3.109375 -1.75 L 1.734375 -1.75 L 1.734375 0 L 0.765625 0 L 0.765625 -5.78125 L 3.109375 -5.78125 C 3.847656 -5.78125 4.421875 -5.609375 4.828125 -5.265625 C 5.234375 -4.921875 5.4375 -4.4375 5.4375 -3.8125 C 5.4375 -3.34375 5.332031 -2.945312 5.125 -2.625 C 4.914062 -2.3125 4.617188 -2.082031 4.234375 -1.9375 L 5.53125 0 Z M 1.734375 -2.625 L 3.109375 -2.625 C 4.046875 -2.625 4.515625 -3.007812 4.515625 -3.78125 C 4.515625 -4.53125 4.046875 -4.90625 3.109375 -4.90625 L 1.734375 -4.90625 Z M 1.734375 -2.625 "/></g></g></g><g fill="#323232" fill-opacity="1"><g transform="translate(211.805419, 286.49417)"><g><path d="M 4.5 -1.3125 L 1.578125 -1.3125 L 1.03125 0 L 0.015625 0 L 2.5625 -5.78125 L 3.5625 -5.78125 L 6.09375 0 L 5.046875 0 Z M 4.125 -2.171875 L 3.03125 -4.75 L 1.9375 -2.171875 Z M 4.125 -2.171875 "/></g></g></g><g fill="#323232" fill-opacity="1"><g transform="translate(222.909313, 286.49417)"><g/></g></g><g fill="#323232" fill-opacity="1"><g transform="translate(230.044565, 286.49417)"><g><path d="M 3.328125 -5.8125 C 3.734375 -5.8125 4.128906 -5.734375 4.515625 -5.578125 C 4.898438 -5.421875 5.234375 -5.203125 5.515625 -4.921875 L 4.953125 -4.203125 C 4.742188 -4.429688 4.492188 -4.609375 4.203125 -4.734375 C 3.921875 -4.867188 3.632812 -4.9375 3.34375 -4.9375 C 2.757812 -4.9375 2.265625 -4.738281 1.859375 -4.34375 C 1.460938 -3.957031 1.265625 -3.476562 1.265625 -2.90625 C 1.265625 -2.332031 1.460938 -1.847656 1.859375 -1.453125 C 2.265625 -1.066406 2.757812 -0.875 3.34375 -0.875 C 3.9375 -0.875 4.472656 -1.097656 4.953125 -1.546875 L 5.53125 -0.90625 C 5.226562 -0.613281 4.878906 -0.378906 4.484375 -0.203125 C 4.085938 -0.0351562 3.691406 0.046875 3.296875 0.046875 C 2.441406 0.046875 1.722656 -0.234375 1.140625 -0.796875 C 0.566406 -1.367188 0.28125 -2.070312 0.28125 -2.90625 C 0.28125 -3.726562 0.570312 -4.414062 1.15625 -4.96875 C 1.75 -5.53125 2.472656 -5.8125 3.328125 -5.8125 Z M 3.328125 -5.8125 "/></g></g></g><g fill="#323232" fill-opacity="1"><g transform="translate(240.80947, 286.49417)"><g><path d="M 4.4375 0 L 3.375 -1.75 C 3.320312 -1.75 3.234375 -1.75 3.109375 -1.75 L 1.734375 -1.75 L 1.734375 0 L 0.765625 0 L 0.765625 -5.78125 L 3.109375 -5.78125 C 3.847656 -5.78125 4.421875 -5.609375 4.828125 -5.265625 C 5.234375 -4.921875 5.4375 -4.4375 5.4375 -3.8125 C 5.4375 -3.34375 5.332031 -2.945312 5.125 -2.625 C 4.914062 -2.3125 4.617188 -2.082031 4.234375 -1.9375 L 5.53125 0 Z M 1.734375 -2.625 L 3.109375 -2.625 C 4.046875 -2.625 4.515625 -3.007812 4.515625 -3.78125 C 4.515625 -4.53125 4.046875 -4.90625 3.109375 -4.90625 L 1.734375 -4.90625 Z M 1.734375 -2.625 "/></g></g></g><g fill="#323232" fill-opacity="1"><g transform="translate(251.78934, 286.49417)"><g><path d="M 4.890625 -4.90625 L 1.734375 -4.90625 L 1.734375 -3.34375 L 4.5625 -3.34375 L 4.5625 -2.46875 L 1.734375 -2.46875 L 1.734375 -0.875 L 5 -0.875 L 5 0 L 0.765625 0 L 0.765625 -5.78125 L 4.890625 -5.78125 Z M 4.890625 -4.90625 "/></g></g></g><g fill="#323232" fill-opacity="1"><g transform="translate(262.215257, 286.49417)"><g><path d="M 2.65625 -5.828125 C 3.40625 -5.828125 4.082031 -5.628906 4.6875 -5.234375 L 4.28125 -4.375 C 3.6875 -4.726562 3.125 -4.90625 2.59375 -4.90625 C 2.300781 -4.90625 2.066406 -4.851562 1.890625 -4.75 C 1.722656 -4.644531 1.640625 -4.492188 1.640625 -4.296875 C 1.640625 -4.109375 1.71875 -3.945312 1.875 -3.8125 C 2.03125 -3.675781 2.222656 -3.578125 2.453125 -3.515625 C 2.679688 -3.453125 2.929688 -3.367188 3.203125 -3.265625 C 3.472656 -3.171875 3.722656 -3.070312 3.953125 -2.96875 C 4.191406 -2.863281 4.382812 -2.695312 4.53125 -2.46875 C 4.6875 -2.238281 4.765625 -1.960938 4.765625 -1.640625 C 4.765625 -1.128906 4.5625 -0.722656 4.15625 -0.421875 C 3.75 -0.117188 3.222656 0.03125 2.578125 0.03125 C 2.140625 0.03125 1.710938 -0.0507812 1.296875 -0.21875 C 0.878906 -0.382812 0.519531 -0.609375 0.21875 -0.890625 L 0.640625 -1.734375 C 0.929688 -1.460938 1.25 -1.253906 1.59375 -1.109375 C 1.945312 -0.960938 2.28125 -0.890625 2.59375 -0.890625 C 2.9375 -0.890625 3.203125 -0.945312 3.390625 -1.0625 C 3.578125 -1.1875 3.671875 -1.363281 3.671875 -1.59375 C 3.671875 -1.789062 3.59375 -1.957031 3.4375 -2.09375 C 3.289062 -2.226562 3.097656 -2.328125 2.859375 -2.390625 C 2.628906 -2.453125 2.378906 -2.523438 2.109375 -2.609375 C 1.847656 -2.703125 1.597656 -2.800781 1.359375 -2.90625 C 1.128906 -3.007812 0.9375 -3.171875 0.78125 -3.390625 C 0.625 -3.617188 0.546875 -3.894531 0.546875 -4.21875 C 0.546875 -4.707031 0.738281 -5.097656 1.125 -5.390625 C 1.519531 -5.679688 2.03125 -5.828125 2.65625 -5.828125 Z M 2.65625 -5.828125 "/></g></g></g><g fill="#323232" fill-opacity="1"><g transform="translate(272.36006, 286.49417)"><g><path d="M 3.328125 -5.8125 C 3.734375 -5.8125 4.128906 -5.734375 4.515625 -5.578125 C 4.898438 -5.421875 5.234375 -5.203125 5.515625 -4.921875 L 4.953125 -4.203125 C 4.742188 -4.429688 4.492188 -4.609375 4.203125 -4.734375 C 3.921875 -4.867188 3.632812 -4.9375 3.34375 -4.9375 C 2.757812 -4.9375 2.265625 -4.738281 1.859375 -4.34375 C 1.460938 -3.957031 1.265625 -3.476562 1.265625 -2.90625 C 1.265625 -2.332031 1.460938 -1.847656 1.859375 -1.453125 C 2.265625 -1.066406 2.757812 -0.875 3.34375 -0.875 C 3.9375 -0.875 4.472656 -1.097656 4.953125 -1.546875 L 5.53125 -0.90625 C 5.226562 -0.613281 4.878906 -0.378906 4.484375 -0.203125 C 4.085938 -0.0351562 3.691406 0.046875 3.296875 0.046875 C 2.441406 0.046875 1.722656 -0.234375 1.140625 -0.796875 C 0.566406 -1.367188 0.28125 -2.070312 0.28125 -2.90625 C 0.28125 -3.726562 0.570312 -4.414062 1.15625 -4.96875 C 1.75 -5.53125 2.472656 -5.8125 3.328125 -5.8125 Z M 3.328125 -5.8125 "/></g></g></g><g fill="#323232" fill-opacity="1"><g transform="translate(283.124976, 286.49417)"><g><path d="M 4.890625 -4.90625 L 1.734375 -4.90625 L 1.734375 -3.34375 L 4.5625 -3.34375 L 4.5625 -2.46875 L 1.734375 -2.46875 L 1.734375 -0.875 L 5 -0.875 L 5 0 L 0.765625 0 L 0.765625 -5.78125 L 4.890625 -5.78125 Z M 4.890625 -4.90625 "/></g></g></g><g fill="#323232" fill-opacity="1"><g transform="translate(293.550893, 286.49417)"><g><path d="M 4.4375 0 L 3.375 -1.75 C 3.320312 -1.75 3.234375 -1.75 3.109375 -1.75 L 1.734375 -1.75 L 1.734375 0 L 0.765625 0 L 0.765625 -5.78125 L 3.109375 -5.78125 C 3.847656 -5.78125 4.421875 -5.609375 4.828125 -5.265625 C 5.234375 -4.921875 5.4375 -4.4375 5.4375 -3.8125 C 5.4375 -3.34375 5.332031 -2.945312 5.125 -2.625 C 4.914062 -2.3125 4.617188 -2.082031 4.234375 -1.9375 L 5.53125 0 Z M 1.734375 -2.625 L 3.109375 -2.625 C 4.046875 -2.625 4.515625 -3.007812 4.515625 -3.78125 C 4.515625 -4.53125 4.046875 -4.90625 3.109375 -4.90625 L 1.734375 -4.90625 Z M 1.734375 -2.625 "/></g></g></g><g fill="#1c9ae1" fill-opacity="1"><g transform="translate(213.983808, 267.738177)"><g><path d="M 15.515625 -9.46875 C 16.554688 -9.132812 17.367188 -8.582031 17.953125 -7.8125 C 18.546875 -7.039062 18.84375 -6.09375 18.84375 -4.96875 C 18.84375 -3.375 18.222656 -2.144531 16.984375 -1.28125 C 15.742188 -0.425781 13.9375 0 11.5625 0 L 2.15625 0 L 2.15625 -18.203125 L 11.046875 -18.203125 C 13.265625 -18.203125 14.96875 -17.773438 16.15625 -16.921875 C 17.34375 -16.078125 17.9375 -14.925781 17.9375 -13.46875 C 17.9375 -12.582031 17.722656 -11.789062 17.296875 -11.09375 C 16.878906 -10.40625 16.285156 -9.863281 15.515625 -9.46875 Z M 6.34375 -15.03125 L 6.34375 -10.734375 L 10.53125 -10.734375 C 11.570312 -10.734375 12.359375 -10.914062 12.890625 -11.28125 C 13.429688 -11.644531 13.703125 -12.179688 13.703125 -12.890625 C 13.703125 -13.609375 13.429688 -14.144531 12.890625 -14.5 C 12.359375 -14.851562 11.570312 -15.03125 10.53125 -15.03125 Z M 11.265625 -3.171875 C 12.367188 -3.171875 13.203125 -3.351562 13.765625 -3.71875 C 14.328125 -4.082031 14.609375 -4.644531 14.609375 -5.40625 C 14.609375 -6.914062 13.492188 -7.671875 11.265625 -7.671875 L 6.34375 -7.671875 L 6.34375 -3.171875 Z M 11.265625 -3.171875 "/></g></g></g><g fill="#1c9ae1" fill-opacity="1"><g transform="translate(232.515838, 267.738177)"><g><path d="M 10.03125 -18.203125 C 11.644531 -18.203125 13.046875 -17.929688 14.234375 -17.390625 C 15.421875 -16.859375 16.332031 -16.097656 16.96875 -15.109375 C 17.613281 -14.117188 17.9375 -12.945312 17.9375 -11.59375 C 17.9375 -10.257812 17.613281 -9.09375 16.96875 -8.09375 C 16.332031 -7.101562 15.421875 -6.34375 14.234375 -5.8125 C 13.046875 -5.28125 11.644531 -5.015625 10.03125 -5.015625 L 6.375 -5.015625 L 6.375 0 L 2.15625 0 L 2.15625 -18.203125 Z M 9.796875 -8.453125 C 11.066406 -8.453125 12.03125 -8.722656 12.6875 -9.265625 C 13.34375 -9.816406 13.671875 -10.59375 13.671875 -11.59375 C 13.671875 -12.613281 13.34375 -13.394531 12.6875 -13.9375 C 12.03125 -14.488281 11.066406 -14.765625 9.796875 -14.765625 L 6.375 -14.765625 L 6.375 -8.453125 Z M 9.796875 -8.453125 "/></g></g></g><g fill="#1c9ae1" fill-opacity="1"><g transform="translate(250.190134, 267.738177)"><g><path d="M 14.140625 -3.90625 L 5.6875 -3.90625 L 4.078125 0 L -0.234375 0 L 7.875 -18.203125 L 12.03125 -18.203125 L 20.171875 0 L 15.75 0 Z M 12.8125 -7.09375 L 9.9375 -14.0625 L 7.046875 -7.09375 Z M 12.8125 -7.09375 "/></g></g></g></svg>