<svg xmlns="http://www.w3.org/2000/svg" width="586" height="426" viewBox="0 0 586 426" version="1.1"><path d="M 221 102.500 L 221 126 162.059 126 C 123.495 126, 102.902 126.349, 102.494 127.009 C 102.152 127.564, 102.155 128.914, 102.503 130.009 C 103.124 131.967, 104.101 132, 162.081 132 L 221.028 132 220.764 164.250 L 220.500 196.500 161.750 196.758 L 103 197.016 103 199.508 L 103 202 162 202 L 221 202 221 235 L 221 268 162.107 268 C 109.195 268, 103.152 268.161, 102.604 269.590 C 102.268 270.465, 102.247 271.590, 102.556 272.090 C 102.883 272.620, 127.747 273, 162.072 273 L 221.027 273 220.763 306.250 L 220.500 339.500 161.750 339.758 C 103.883 340.012, 103 340.046, 103 342.003 C 103 343.969, 103.957 343.992, 195.750 344.245 L 288.500 344.500 288.768 369.315 L 289.035 394.129 291.768 393.815 L 294.500 393.500 295 369 L 295.500 344.500 388.250 344.245 C 480.043 343.992, 481 343.969, 481 342.003 C 481 340.046, 480.117 340.012, 422.250 339.758 L 363.500 339.500 363.237 306.258 L 362.973 273.016 421.737 272.758 C 479.747 272.503, 480.500 272.474, 480.500 270.500 C 480.500 268.526, 479.747 268.497, 421.736 268.242 L 362.972 267.984 363.236 235.742 L 363.500 203.500 422 203 C 479.667 202.507, 480.500 202.472, 480.500 200.500 C 480.500 198.525, 479.747 198.497, 420.058 198.242 C 378.572 198.065, 359.284 198.316, 358.558 199.042 C 357.844 199.755, 357.337 222.768, 357 269.800 L 356.500 339.500 293.500 339.776 C 258.850 339.928, 229.488 339.807, 228.250 339.507 L 226 338.962 226 208.981 L 226 79 223.500 79 L 221 79 221 102.500 M 357.505 79.991 C 357.169 80.536, 356.974 91.587, 357.074 104.547 C 357.221 123.632, 357.531 128.389, 358.707 129.564 C 359.949 130.806, 368.831 130.978, 420.329 130.758 L 480.500 130.500 480.818 128.258 L 481.137 126.016 422.318 125.758 L 363.500 125.500 363.232 102.250 L 362.963 79 360.541 79 C 359.208 79, 357.842 79.446, 357.505 79.991" stroke="none" fill="#3d250a" fill-rule="evenodd"/><path d="M 256 76.990 C 130.703 77.632, 138.741 77.204, 124.504 83.998 C 111.001 90.443, 102.747 102.088, 101.105 117.015 C 100.652 121.132, 100.251 176.025, 100.214 239 C 100.141 362.257, 100.107 361.357, 105.321 371.646 C 109.836 380.556, 121.107 389.322, 132 392.394 C 143.480 395.632, 173.148 397, 231.876 397 C 271.393 397, 288.081 396.677, 288.559 395.904 C 288.998 395.195, 290.516 395.081, 292.868 395.582 C 294.866 396.008, 325.075 396.388, 360 396.428 C 428.969 396.506, 441.965 395.811, 453.760 391.415 C 472.719 384.349, 482.917 369.223, 483.705 347 C 484.750 317.567, 484.540 278.231, 483.318 274.383 C 482.356 271.351, 482.287 269.474, 483.060 267.259 C 483.743 265.298, 483.953 253.332, 483.663 232.876 C 483.419 215.619, 483.225 201.050, 483.234 200.500 C 483.907 156.099, 483.902 134.408, 483.218 131.793 C 482.700 129.813, 482.755 127.193, 483.355 125.222 C 484.521 121.392, 482.146 109.714, 478.531 101.500 C 475.238 94.019, 466.877 86.869, 456.939 83.037 C 439.672 76.378, 430.349 76.097, 256 76.990 M 221 102.500 L 221 126 162.059 126 C 123.495 126, 102.902 126.349, 102.494 127.009 C 102.152 127.564, 102.155 128.914, 102.503 130.009 C 103.124 131.967, 104.101 132, 162.081 132 L 221.028 132 220.764 164.250 L 220.500 196.500 161.750 196.758 L 103 197.016 103 199.508 L 103 202 162 202 L 221 202 221 235 L 221 268 162.107 268 C 109.195 268, 103.152 268.161, 102.604 269.590 C 102.268 270.465, 102.247 271.590, 102.556 272.090 C 102.883 272.620, 127.747 273, 162.072 273 L 221.027 273 220.763 306.250 L 220.500 339.500 161.750 339.758 C 103.883 340.012, 103 340.046, 103 342.003 C 103 343.969, 103.957 343.992, 195.750 344.245 L 288.500 344.500 288.768 369.315 L 289.035 394.129 291.768 393.815 L 294.500 393.500 295 369 L 295.500 344.500 388.250 344.245 C 480.043 343.992, 481 343.969, 481 342.003 C 481 340.046, 480.117 340.012, 422.250 339.758 L 363.500 339.500 363.237 306.258 L 362.973 273.016 421.737 272.758 C 479.747 272.503, 480.500 272.474, 480.500 270.500 C 480.500 268.526, 479.747 268.497, 421.736 268.242 L 362.972 267.984 363.236 235.742 L 363.500 203.500 422 203 C 479.667 202.507, 480.500 202.472, 480.500 200.500 C 480.500 198.525, 479.747 198.497, 420.058 198.242 C 378.572 198.065, 359.284 198.316, 358.558 199.042 C 357.844 199.755, 357.337 222.768, 357 269.800 L 356.500 339.500 293.500 339.776 C 258.850 339.928, 229.488 339.807, 228.250 339.507 L 226 338.962 226 208.981 L 226 79 223.500 79 L 221 79 221 102.500 M 357.505 79.991 C 357.169 80.536, 356.974 91.587, 357.074 104.547 C 357.221 123.632, 357.531 128.389, 358.707 129.564 C 359.949 130.806, 368.831 130.978, 420.329 130.758 L 480.500 130.500 480.818 128.258 L 481.137 126.016 422.318 125.758 L 363.500 125.500 363.232 102.250 L 362.963 79 360.541 79 C 359.208 79, 357.842 79.446, 357.505 79.991" stroke="none" fill="#f4d44d" fill-rule="evenodd"/></svg>