<svg version="1.1" id="Layer_1" xmlns="http://www.w3.org/2000/svg" xmlns:xlink="http://www.w3.org/1999/xlink" x="0px" y="0px"
	 width="100%" viewBox="0 0 405 499" enable-background="new 0 0 405 499" xml:space="preserve">
<path fill="#FFFFFF" opacity="1.000000" stroke="none" 
	d="
M6.000000,500.000000 
	C4.333798,500.000000 2.667596,500.000000 1.001045,500.000000 
	C1.000697,333.713470 1.000697,167.426956 1.000697,1.070220 
	C135.915543,1.070220 270.831116,1.070220 405.873352,1.070220 
	C405.873352,167.333267 405.873352,333.666626 405.873352,500.000000 
	C358.572357,500.000000 311.252197,500.000000 263.467407,499.791931 
	C263.002716,499.583862 263.006927,499.167725 263.454010,499.101532 
	C268.535736,498.608765 273.230225,498.518219 277.796143,497.705627 
	C352.713501,484.372833 404.824402,418.713959 400.811218,342.605194 
	C400.100250,329.121643 397.618622,315.900818 392.825409,303.054749 
	C392.404541,303.452881 392.093231,303.619324 391.982483,303.873199 
	C391.317902,305.396606 390.695312,306.938507 390.066071,308.477234 
	C380.677368,331.436096 366.429108,350.886871 347.337189,366.658203 
	C319.290192,389.827209 286.857697,400.916718 250.563034,400.921265 
	C170.924835,400.931244 91.286644,400.924683 11.648443,400.924896 
	C9.698505,400.924896 7.748568,400.924896 5.582857,400.924896 
	C5.453588,402.404388 5.296217,403.368073 5.295791,404.331818 
	C5.282305,434.820923 5.276673,465.310028 5.313439,495.799103 
	C5.314760,496.894928 5.757047,497.990265 5.995574,499.314362 
	C5.997327,499.542908 6.000000,500.000000 6.000000,500.000000 
M250.488388,301.969910 
	C360.010895,302.315460 425.770325,194.950836 392.474579,104.992485 
	C391.875977,106.387947 391.341736,107.562111 390.863525,108.758682 
	C382.708679,129.164230 370.851440,147.112152 354.810150,162.146500 
	C325.655762,189.470810 290.966187,202.973984 251.043503,202.989883 
	C171.219604,203.021683 91.395683,202.999451 11.571768,202.999527 
	C9.629164,202.999527 7.686560,202.999527 5.666306,202.999527 
	C5.666306,236.289444 5.666306,269.001556 5.666306,301.969910 
	C87.197083,301.969910 168.344742,301.969910 250.488388,301.969910 
M5.131878,18.511326 
	C5.131878,46.929844 5.131878,75.348358 5.131878,103.800575 
	C6.700767,103.897316 7.525905,103.992699 8.351050,103.992760 
	C90.006958,103.998619 171.662888,104.020142 253.318695,103.926537 
	C257.263916,103.922020 261.307190,103.283020 265.136414,102.290077 
	C289.121399,96.070648 304.950134,72.813393 301.824402,48.665565 
	C298.573944,23.554430 278.021118,5.223431 252.524399,5.192855 
	C171.701828,5.095932 90.879074,5.154671 10.056388,5.165174 
	C8.478308,5.165380 6.900246,5.312051 5.131945,5.399832 
	C5.131945,9.863281 5.131945,13.689915 5.131878,18.511326 
z"/>
<path fill="#F6FAFF" opacity="1.000000" stroke="none" 
	d="
M6.468657,500.000000 
	C6.000000,500.000000 5.997327,499.542908 6.463461,499.278320 
	C90.961388,499.008118 174.993179,499.001709 259.024963,499.003998 
	C260.352295,499.004028 261.679596,499.110779 263.006927,499.167725 
	C263.006927,499.167725 263.002716,499.583862 263.001343,499.791931 
	C177.645767,500.000000 92.291542,500.000000 6.468657,500.000000 
z"/>
<path fill="#1A82FF" opacity="1.000000" stroke="none" 
	d="
M249.990387,301.969910 
	C168.344742,301.969910 87.197083,301.969910 5.666306,301.969910 
	C5.666306,269.001556 5.666306,236.289444 5.666306,202.999527 
	C7.686560,202.999527 9.629164,202.999527 11.571768,202.999527 
	C91.395683,202.999451 171.219604,203.021683 251.043503,202.989883 
	C290.966187,202.973984 325.655762,189.470810 354.810150,162.146500 
	C370.851440,147.112152 382.708679,129.164230 390.863525,108.758682 
	C391.341736,107.562111 391.875977,106.387947 392.474579,104.992485 
	C425.770325,194.950836 360.010895,302.315460 249.990387,301.969910 
z"/>
<path fill="#1A82FF" opacity="1.000000" stroke="none" 
	d="
M263.454010,499.101501 
	C261.679596,499.110779 260.352295,499.004028 259.024963,499.003998 
	C174.993179,499.001709 90.961388,499.008118 6.461708,499.049744 
	C5.757047,497.990265 5.314760,496.894928 5.313439,495.799103 
	C5.276673,465.310028 5.282305,434.820923 5.295791,404.331818 
	C5.296217,403.368073 5.453588,402.404388 5.582857,400.924896 
	C7.748568,400.924896 9.698505,400.924896 11.648443,400.924896 
	C91.286644,400.924683 170.924835,400.931244 250.563034,400.921265 
	C286.857697,400.916718 319.290192,389.827209 347.337189,366.658203 
	C366.429108,350.886871 380.677368,331.436096 390.066071,308.477234 
	C390.695312,306.938507 391.317902,305.396606 391.982483,303.873199 
	C392.093231,303.619324 392.404541,303.452881 392.825409,303.054749 
	C397.618622,315.900818 400.100250,329.121643 400.811218,342.605194 
	C404.824402,418.713959 352.713501,484.372833 277.796143,497.705627 
	C273.230225,498.518219 268.535736,498.608765 263.454010,499.101501 
z"/>
<path fill="#1A82FF" opacity="1.000000" stroke="none" 
	d="
M5.131912,18.013937 
	C5.131945,13.689915 5.131945,9.863281 5.131945,5.399832 
	C6.900246,5.312051 8.478308,5.165380 10.056388,5.165174 
	C90.879074,5.154671 171.701828,5.095932 252.524399,5.192855 
	C278.021118,5.223431 298.573944,23.554430 301.824402,48.665565 
	C304.950134,72.813393 289.121399,96.070648 265.136414,102.290077 
	C261.307190,103.283020 257.263916,103.922020 253.318695,103.926537 
	C171.662888,104.020142 90.006958,103.998619 8.351050,103.992760 
	C7.525905,103.992699 6.700767,103.897316 5.131878,103.800575 
	C5.131878,75.348358 5.131878,46.929844 5.131912,18.013937 
z"/>
</svg>