<?xml version="1.0" encoding="UTF-8"?>
<svg version="1.1" xmlns="http://www.w3.org/2000/svg" width="180" height="250">
<path d="M0 0 C2.29222554 1.7917666 2.95502553 2.79293632 3.58203125 5.6796875 C4.66977826 20.76065449 2.40036974 33.81461645 -7.33203125 45.89453125 C-16.90775678 55.95281303 -27.69389459 61.98127931 -41.68009281 62.32960033 C-46.18444121 62.37763335 -50.68700347 62.35896215 -55.19140625 62.328125 C-57.14769851 62.32506347 -59.10399296 62.32319035 -61.06028748 62.32244873 C-65.13931756 62.31786718 -69.21814784 62.3035159 -73.29711914 62.28125 C-78.53632959 62.25279995 -83.77538427 62.24201928 -89.01466465 62.2375679 C-93.04395616 62.23342384 -97.07321598 62.22361765 -101.10249138 62.21169281 C-103.03588546 62.20598354 -104.96928258 62.20122701 -106.90268135 62.19742584 C-109.59085664 62.19059074 -112.27890567 62.17697609 -114.96704102 62.16113281 C-116.17237991 62.15945602 -116.17237991 62.15945602 -117.40206909 62.15774536 C-122.88530027 62.11469973 -122.88530027 62.11469973 -124 61 C-124.1002093 58.72052208 -124.13081303 56.43792865 -124.1328125 54.15625 C-124.13376923 53.47195923 -124.13472595 52.78766846 -124.13571167 52.0826416 C-124.1363933 50.63338123 -124.13454023 49.18411782 -124.13037109 47.73486328 C-124.12502252 45.50937072 -124.1303166 43.28407999 -124.13671875 41.05859375 C-124.13605797 39.65364539 -124.1347768 38.24869715 -124.1328125 36.84375 C-124.13168457 35.55662109 -124.13055664 34.26949219 -124.12939453 32.94335938 C-124 30 -124 30 -123 29 C-120.39110629 28.89612277 -117.8078273 28.85638574 -115.19824219 28.8581543 C-114.3801709 28.85467987 -113.56209961 28.85120544 -112.71923828 28.84762573 C-110.93442215 28.84025175 -109.14959675 28.83491517 -107.36476898 28.83133507 C-104.52982667 28.8241757 -101.69505809 28.80850797 -98.86016846 28.78999329 C-90.79645339 28.73753588 -82.73282688 28.68965716 -74.66894531 28.67407227 C-69.73980384 28.66392057 -64.81108988 28.63440299 -59.88211823 28.59275246 C-58.01170353 28.58052574 -56.14122815 28.57530579 -54.27077484 28.57755089 C-37.7254163 28.59250629 -23.01258703 26.58331237 -10.3125 14.8125 C-6.14173992 10.40341078 -3.09037834 5.19446572 0 0 Z " fill="#FBFDFD" transform="translate(162,83)"/>
<path d="M0 0 C2.59320077 1.90121458 2.99304327 2.96190138 3.58203125 6.1875 C4.47053152 20.88540283 2.72758132 34.09913277 -6.953125 45.765625 C-16.12285714 55.7753326 -25.44186196 62.03678894 -39.17837715 63.18153763 C-41.39619147 63.242916 -43.60590825 63.24797349 -45.82446289 63.22705078 C-46.65483063 63.22734283 -47.48519836 63.22763489 -48.34072876 63.22793579 C-51.05148223 63.22655626 -53.76195154 63.21106083 -56.47265625 63.1953125 C-58.36551259 63.19157746 -60.25837088 63.18873281 -62.15122986 63.18673706 C-67.10779253 63.17913926 -72.06423603 63.15952425 -77.02075195 63.1373291 C-82.08868803 63.11678726 -87.15664357 63.10771758 -92.22460938 63.09765625 C-102.14979164 63.0762744 -112.07488587 63.04218548 -122 63 C-123.72097391 58.96799409 -124.23706957 56.01083998 -124.1953125 51.60546875 C-124.18886719 50.40341797 -124.18242188 49.20136719 -124.17578125 47.96289062 C-124.15902344 46.71701172 -124.14226562 45.47113281 -124.125 44.1875 C-124.11597656 42.92228516 -124.10695312 41.65707031 -124.09765625 40.35351562 C-124.07412394 37.23548436 -124.04124545 34.11783903 -124 31 C-120.84791159 29.42395579 -117.46927009 29.86475923 -114.00878906 29.87402344 C-113.18242447 29.8721553 -112.35605988 29.87028717 -111.50465393 29.86836243 C-109.70457522 29.86435177 -107.9044914 29.86228298 -106.10440826 29.86190033 C-102.26188571 29.85848209 -98.4195319 29.83710342 -94.57706833 29.81666946 C-87.42359121 29.77872136 -80.27028845 29.74736997 -73.11669922 29.74951172 C-68.14095566 29.75030459 -63.16582272 29.72668202 -58.19023895 29.6876297 C-56.30389918 29.67724621 -54.41748823 29.67558852 -52.53113556 29.68328094 C-35.94854207 29.74408955 -22.60924943 27.50986536 -10.33203125 15.34765625 C-6.11710797 10.74266295 -3.06900334 5.40884631 0 0 Z " fill="#F0F8FC" transform="translate(162,145)"/>
<path d="M0 0 C1.18063271 -0.0098568 1.18063271 -0.0098568 2.38511658 -0.01991272 C5.00340868 -0.03970367 7.62164311 -0.0513248 10.23999023 -0.0612793 C11.58064198 -0.06739259 11.58064198 -0.06739259 12.94837761 -0.07362938 C17.68433275 -0.09452077 22.42025869 -0.10880576 27.15625 -0.11816406 C32.03984973 -0.12919896 36.92299007 -0.16355604 41.80642796 -0.20333576 C45.56665364 -0.22954554 49.32677101 -0.23786006 53.08708 -0.24144554 C54.88633239 -0.24630495 56.68558014 -0.25790049 58.48474312 -0.27648354 C61.01232722 -0.30095465 63.53873879 -0.29989509 66.06640625 -0.29296875 C67.17104721 -0.31218384 67.17104721 -0.31218384 68.29800415 -0.33178711 C74.38302256 -0.27138327 79.64305178 1.51193654 84.14289188 5.73009777 C87.84933702 9.89519358 88.17552914 14.16533621 87.90795898 19.59106445 C87.11233892 24.46792077 84.60537472 27.08796232 81.17358398 30.42700195 C75.73741596 33.9668323 70.01359023 34.4715706 63.6706543 34.41992188 C62.92342606 34.42182022 62.17619781 34.42371857 61.40632629 34.42567444 C58.95884402 34.42935205 56.51166445 34.41872423 54.06420898 34.4074707 C52.35504186 34.40627743 50.64587407 34.40582605 48.93670654 34.40608215 C45.36604673 34.40452269 41.79548793 34.39627164 38.22485352 34.3828125 C33.64602589 34.36577187 29.06730854 34.36199995 24.48845291 34.36275768 C20.96434475 34.36248603 17.44026073 34.35700635 13.91616058 34.34975624 C12.22724337 34.34657352 10.53832343 34.34460309 8.84940338 34.34386253 C6.49419977 34.3416977 4.1391139 34.33295183 1.78393555 34.32226562 C0.73659996 34.3229454 0.73659996 34.3229454 -0.33189392 34.32363892 C-3.34121089 34.303644 -5.63329932 34.13720752 -8.51391602 33.17700195 C-8.53856994 28.6380249 -8.5567539 24.09908652 -8.56884766 19.56005859 C-8.57388741 18.0148043 -8.58071921 16.46955479 -8.58935547 14.92431641 C-8.60143678 12.70775167 -8.60714774 10.49124977 -8.61157227 8.2746582 C-8.61673355 7.57985855 -8.62189484 6.8850589 -8.62721252 6.16920471 C-8.62740878 4.50470865 -8.5758073 2.84034697 -8.51391602 1.17700195 C-6.54381979 -0.79309427 -2.69388111 0.00965044 0 0 Z " fill="#FCFEFD" transform="translate(46.513916015625,48.822998046875)"/>
<path d="M0 0 C1.18063271 -0.0098568 1.18063271 -0.0098568 2.38511658 -0.01991272 C5.00340868 -0.03970367 7.62164311 -0.0513248 10.23999023 -0.0612793 C11.58064198 -0.06739259 11.58064198 -0.06739259 12.94837761 -0.07362938 C17.68433275 -0.09452077 22.42025869 -0.10880576 27.15625 -0.11816406 C32.03984973 -0.12919896 36.92299007 -0.16355604 41.80642796 -0.20333576 C45.56665364 -0.22954554 49.32677101 -0.23786006 53.08708 -0.24144554 C54.88633239 -0.24630495 56.68558014 -0.25790049 58.48474312 -0.27648354 C61.01232722 -0.30095465 63.53873879 -0.29989509 66.06640625 -0.29296875 C67.17104721 -0.31218384 67.17104721 -0.31218384 68.29800415 -0.33178711 C74.38302256 -0.27138327 79.64305178 1.51193654 84.14289188 5.73009777 C87.84933702 9.89519358 88.17552914 14.16533621 87.90795898 19.59106445 C87.11233892 24.46792077 84.60537472 27.08796232 81.17358398 30.42700195 C75.73741596 33.9668323 70.01359023 34.4715706 63.6706543 34.41992188 C62.92342606 34.42182022 62.17619781 34.42371857 61.40632629 34.42567444 C58.95884402 34.42935205 56.51166445 34.41872423 54.06420898 34.4074707 C52.35504186 34.40627743 50.64587407 34.40582605 48.93670654 34.40608215 C45.36604673 34.40452269 41.79548793 34.39627164 38.22485352 34.3828125 C33.64602589 34.36577187 29.06730854 34.36199995 24.48845291 34.36275768 C20.96434475 34.36248603 17.44026073 34.35700635 13.91616058 34.34975624 C12.22724337 34.34657352 10.53832343 34.34460309 8.84940338 34.34386253 C6.49419977 34.3416977 4.1391139 34.33295183 1.78393555 34.32226562 C0.73659996 34.3229454 0.73659996 34.3229454 -0.33189392 34.32363892 C-3.34121089 34.303644 -5.63329932 34.13720752 -8.51391602 33.17700195 C-8.53856994 28.6380249 -8.5567539 24.09908652 -8.56884766 19.56005859 C-8.57388741 18.0148043 -8.58071921 16.46955479 -8.58935547 14.92431641 C-8.60143678 12.70775167 -8.60714774 10.49124977 -8.61157227 8.2746582 C-8.61673355 7.57985855 -8.62189484 6.8850589 -8.62721252 6.16920471 C-8.62740878 4.50470865 -8.5758073 2.84034697 -8.51391602 1.17700195 C-6.54381979 -0.79309427 -2.69388111 0.00965044 0 0 Z M-6.51391602 2.17700195 C-6.51391602 11.74700195 -6.51391602 21.31700195 -6.51391602 31.17700195 C20.87608398 31.17700195 48.26608398 31.17700195 76.48608398 31.17700195 C76.48608398 30.18700195 76.48608398 29.19700195 76.48608398 28.17700195 C77.41420898 28.11512695 78.34233398 28.05325195 79.29858398 27.98950195 C82.59519657 27.49876165 82.59519657 27.49876165 84.15795898 25.0012207 C86.4227338 20.18524367 86.1343055 15.38438149 85.48608398 10.17700195 C84.04256595 6.92752731 84.04256595 6.92752731 81.48608398 5.17700195 C78.87997322 4.45503033 78.87997322 4.45503033 76.48608398 4.17700195 C75.99108398 3.18700195 75.99108398 3.18700195 75.48608398 2.17700195 C48.42608398 2.17700195 21.36608398 2.17700195 -6.51391602 2.17700195 Z " fill="#87C0F1" transform="translate(46.513916015625,48.822998046875)"/>
<path d="M0 0 C0 0.66 0 1.32 0 2 C-5.38377748 3.7948981 -10.03608852 4.27923208 -15.68920898 4.22705078 C-16.52903824 4.22734283 -17.36886749 4.22763489 -18.23414612 4.22793579 C-20.98823667 4.22655124 -23.74205092 4.21103152 -26.49609375 4.1953125 C-28.41422884 4.19157926 -30.33236585 4.18873375 -32.25050354 4.18673706 C-37.28271816 4.17912513 -42.31481612 4.15949769 -47.34698486 4.1373291 C-52.48846865 4.116818 -57.62997141 4.10772411 -62.77148438 4.09765625 C-72.84771558 4.0762494 -82.92382981 4.04108723 -93 4 C-93 13.9 -93 23.8 -93 34 C-64.29 34 -35.58 34 -6 34 C-6 34.33 -6 34.66 -6 35 C-17.45650016 35.02312241 -28.91299481 35.04091457 -40.36951351 35.05181217 C-45.68865213 35.05704122 -51.00777484 35.06413927 -56.3269043 35.07543945 C-61.45563985 35.08626755 -66.58436006 35.09227667 -71.71310616 35.09487724 C-73.67441614 35.09673163 -75.63572524 35.10035251 -77.59702873 35.10573006 C-80.33415447 35.11293946 -83.07121597 35.11399099 -85.80834961 35.11352539 C-87.03725418 35.1189183 -87.03725418 35.1189183 -88.29098511 35.12442017 C-93.88594784 35.11405216 -93.88594784 35.11405216 -95 34 C-95.1002093 31.72052208 -95.13081303 29.43792865 -95.1328125 27.15625 C-95.13376923 26.47195923 -95.13472595 25.78766846 -95.13571167 25.0826416 C-95.1363933 23.63338123 -95.13454023 22.18411782 -95.13037109 20.73486328 C-95.12502252 18.50937072 -95.1303166 16.28407999 -95.13671875 14.05859375 C-95.13605797 12.65364539 -95.1347768 11.24869715 -95.1328125 9.84375 C-95.13168457 8.55662109 -95.13055664 7.26949219 -95.12939453 5.94335938 C-95 3 -95 3 -94 2 C-91.34924049 1.88018457 -88.72336198 1.82454612 -86.07128906 1.81054688 C-85.24036743 1.80225357 -84.4094458 1.79396027 -83.55334473 1.78541565 C-81.74233183 1.76797279 -79.93129583 1.7528177 -78.12024689 1.73963928 C-75.2539116 1.71866428 -72.38769129 1.69163449 -69.52142334 1.66296387 C-63.43099295 1.60315325 -57.34050888 1.55109728 -51.25 1.5 C-44.20764795 1.44076812 -37.16535166 1.37837844 -30.12310028 1.30812073 C-27.29971594 1.28157058 -24.47632603 1.26073611 -21.65289307 1.2401123 C-19.91735573 1.22350272 -18.18182088 1.20663031 -16.44628906 1.18945312 C-15.26936493 1.1831765 -15.26936493 1.1831765 -14.06866455 1.17677307 C-9.28928471 1.12207481 -4.7228269 0 0 0 Z " fill="#8EC4EF" transform="translate(133,110)"/>
<path d="M0 0 C2.59320077 1.90121458 2.99304327 2.96190138 3.58203125 6.1875 C4.31171469 18.25819551 2.95820256 27.90421661 -2 39 C-3.38014043 35.284905 -2.5489002 33.33337558 -1.0625 29.75 C1.67416429 22.15128953 1.36312238 14.94834541 1 7 C-2.36073419 9.39168814 -3.95688859 11.40412392 -6 15 C-8.8952027 19.67065802 -10.72086684 22.10492656 -16 24 C-18.29577243 26.51406311 -18.29577243 26.51406311 -20 29 C-20 28.34 -20 27.68 -20 27 C-21.98 27 -23.96 27 -26 27 C-24.2619892 25.84132614 -22.51950801 24.68919225 -20.765625 23.5546875 C-11.23256598 17.18944623 -5.56510646 9.94788261 0 0 Z " fill="#B6E2FA" transform="translate(162,145)"/>
<path d="M0 0 C1.32 0.66 2.64 1.32 4 2 C2.65396505 3.11406521 1.2976691 4.21573594 -0.0625 5.3125 C-0.81660156 5.92738281 -1.57070312 6.54226562 -2.34765625 7.17578125 C-8.73551811 11.56920023 -13.84458282 12.43631939 -21.42358398 12.34057617 C-22.3414418 12.34101425 -23.25929962 12.34145233 -24.20497131 12.34190369 C-27.21890016 12.33982466 -30.23226287 12.3165354 -33.24609375 12.29296875 C-35.34358924 12.28736965 -37.44108866 12.28310103 -39.53858948 12.28010559 C-45.04433123 12.2686816 -50.54983347 12.23923537 -56.05548096 12.20599365 C-61.67953248 12.17524005 -67.3036229 12.16158895 -72.92773438 12.14648438 C-83.95192782 12.11436341 -94.97594395 12.06319659 -106 12 C-106 8.7 -106 5.4 -106 2 C-105.67 2 -105.34 2 -105 2 C-105 4.97 -105 7.94 -105 11 C-73.65 10.67 -42.3 10.34 -10 10 C-10 9.34 -10 8.68 -10 8 C-9.01 8 -8.02 8 -7 8 C-7 7.34 -7 6.68 -7 6 C-5.68 6 -4.36 6 -3 6 C-3 5.01 -3 4.02 -3 3 C-1.5 1.3125 -1.5 1.3125 0 0 Z " fill="#F2FEFF" transform="translate(146,194)"/>
<path d="M0 0 C2 1.3125 2 1.3125 4 4 C4.85514005 9.27062278 4.67434503 13.62633419 2.3125 18.4375 C-3.4236233 24.79374474 -3.4236233 24.79374474 -8.67634583 25.48101807 C-10.11860373 25.4925379 -11.56114262 25.48214736 -13.00317383 25.45410156 C-14.18932785 25.45497772 -14.18932785 25.45497772 -15.39944458 25.45587158 C-18.00242647 25.45309404 -20.60425045 25.42201885 -23.20703125 25.390625 C-25.01591873 25.38316141 -26.82481431 25.37746903 -28.63371277 25.37347412 C-33.38665222 25.35822706 -38.13910003 25.31895331 -42.8918457 25.2746582 C-47.74488678 25.23368544 -52.59800756 25.21545883 -57.45117188 25.1953125 C-66.96766351 25.15245811 -76.48379082 25.08421804 -86 25 C-86 24.67 -86 24.34 -86 24 C-59.93 24 -33.86 24 -7 24 C-7 23.01 -7 22.02 -7 21 C-5.02 20.67 -3.04 20.34 -1 20 C-0.855625 19.360625 -0.71125 18.72125 -0.5625 18.0625 C0 16 0 16 1 15 C1.09927286 13.0437407 1.12969729 11.08377091 1.125 9.125 C1.12757813 8.05507812 1.13015625 6.98515625 1.1328125 5.8828125 C1.12784318 2.92980831 1.12784318 2.92980831 0 0 Z " fill="#D9F5FE" transform="translate(130,56)"/>
<path d="M0 0 C1.65 0 3.3 0 5 0 C-1.74588123 6.11345486 -8.50375066 7.4554717 -17.26171875 7.34057617 C-18.15046188 7.34101425 -19.03920502 7.34145233 -19.95487976 7.34190369 C-22.86598376 7.33982878 -25.77649773 7.31655945 -28.6875 7.29296875 C-30.71630539 7.28736817 -32.74511487 7.28310026 -34.77392578 7.28010559 C-40.09388582 7.2686932 -45.41359717 7.23925715 -50.73345947 7.20599365 C-56.16992835 7.17521486 -61.60643771 7.1615836 -67.04296875 7.14648438 C-77.69542131 7.11438392 -88.34768991 7.06323136 -99 7 C-99 6.67 -99 6.34 -99 6 C-97.38840248 5.99120064 -97.38840248 5.99120064 -95.74424744 5.98222351 C-85.60685817 5.92494933 -75.46968245 5.85216303 -65.33251095 5.76428509 C-60.12118521 5.71960468 -54.90993724 5.68034331 -49.69848633 5.65356445 C-44.66682087 5.6275084 -39.635455 5.58708943 -34.6039753 5.53681374 C-32.68674007 5.52016064 -30.76945304 5.50863668 -28.85215569 5.50238609 C-26.16145478 5.49272812 -23.47151767 5.4646486 -20.78100586 5.43237305 C-19.99265854 5.43380814 -19.20431122 5.43524323 -18.39207458 5.4367218 C-13.19327203 5.34883264 -9.69282311 4.22261565 -5 2 C-2.0625 1.8125 -2.0625 1.8125 0 2 C0 1.34 0 0.68 0 0 Z " fill="#EAFEFF" transform="translate(139,137)"/>
<path d="M0 0 C2.29222554 1.7917666 2.95502553 2.79293632 3.58203125 5.6796875 C4.1633749 13.73967241 3.56915547 21.07641327 2 29 C1.67 29 1.34 29 1 29 C1.01160156 27.81921875 1.02320313 26.6384375 1.03515625 25.421875 C1.04453752 23.86458492 1.05363736 22.30729312 1.0625 20.75 C1.07087891 19.97269531 1.07925781 19.19539063 1.08789062 18.39453125 C1.09111328 17.64042969 1.09433594 16.88632813 1.09765625 16.109375 C1.10289307 15.41811523 1.10812988 14.72685547 1.11352539 14.01464844 C0.99437971 11.90026102 0.57618237 10.03358485 0 8 C-2.75831522 10.01282462 -4.76196705 11.59336037 -6.5 14.5625 C-8.28105455 17.45671364 -10.11293627 18.29737267 -13 20 C-14.32793606 22.06700655 -14.32793606 22.06700655 -15 24 C-17.31 24 -19.62 24 -22 24 C-21.34 23.484375 -20.68 22.96875 -20 22.4375 C-19.01 21.633125 -18.02 20.82875 -17 20 C-16.07574219 19.27103516 -16.07574219 19.27103516 -15.1328125 18.52734375 C-9.65098445 14.0160339 -5.84196213 8.93946578 -2 3 C-1.34 2.01 -0.68 1.02 0 0 Z " fill="#BEE9FC" transform="translate(162,83)"/>
<path d="M0 0 C0.33 0 0.66 0 1 0 C2.32768016 13.29474319 1.52638182 23.63270865 -4 36 C-5.3365233 32.34570845 -4.6072534 30.5165184 -3.125 27 C0.02392867 18.26986673 -0.18139647 9.17866119 0 0 Z " fill="#A4D1F2" transform="translate(164,148)"/>
<path d="M0 0 C2 1.3125 2 1.3125 4 4 C4.86815444 9.35083651 4.69163669 13.6644257 2.1875 18.5 C-1.23529412 22.41176471 -1.23529412 22.41176471 -3 24 C-3.66 23.67 -4.32 23.34 -5 23 C-4.505 21.515 -4.505 21.515 -4 20 C-3.01 20 -2.02 20 -1 20 C-0.855625 19.360625 -0.71125 18.72125 -0.5625 18.0625 C0 16 0 16 1 15 C1.09927286 13.0437407 1.12969729 11.08377091 1.125 9.125 C1.12757813 8.05507812 1.13015625 6.98515625 1.1328125 5.8828125 C1.12784318 2.92980831 1.12784318 2.92980831 0 0 Z " fill="#98CCF4" transform="translate(130,56)"/>
<path d="M0 0 C0.33 0.66 0.66 1.32 1 2 C-0.92884853 7.2192372 -3.41063205 9.0706162 -8 12 C-9.38868516 14.10039331 -9.38868516 14.10039331 -10 16 C-12.31 16 -14.62 16 -17 16 C-16.34 15.484375 -15.68 14.96875 -15 14.4375 C-6.85269671 7.86510604 -6.85269671 7.86510604 0 0 Z " fill="#A9D5F4" transform="translate(157,91)"/>
<path d="M0 0 C1.32 0.66 2.64 1.32 4 2 C-8.08219178 12 -8.08219178 12 -15 12 C-15 11.34 -15 10.68 -15 10 C-13.35 10 -11.7 10 -10 10 C-10 9.34 -10 8.68 -10 8 C-9.01 8 -8.02 8 -7 8 C-7 7.34 -7 6.68 -7 6 C-5.68 6 -4.36 6 -3 6 C-3 5.01 -3 4.02 -3 3 C-1.5 1.3125 -1.5 1.3125 0 0 Z " fill="#ACDDF9" transform="translate(146,194)"/>
<path d="M0 0 C1.65 0 3.3 0 5 0 C-0.06108357 4.58660699 -5.17508752 7 -12 7 C-11.67 6.01 -11.34 5.02 -11 4 C-7.24092359 2.37676246 -4.07913787 1.76005071 0 2 C0 1.34 0 0.68 0 0 Z " fill="#BFE1F6" transform="translate(139,137)"/>
<path d="M0 0 C0.33 0.66 0.66 1.32 1 2 C0.34 2 -0.32 2 -1 2 C-1.433125 3.175625 -1.433125 3.175625 -1.875 4.375 C-3 7 -3 7 -5 9 C-5 8.34 -5 7.68 -5 7 C-6.98 7 -8.96 7 -11 7 C-8.62463329 5.41642219 -6.23494336 3.88406307 -3.8125 2.375 C-2.73935547 1.70597656 -2.73935547 1.70597656 -1.64453125 1.0234375 C-1.10183594 0.68570313 -0.55914062 0.34796875 0 0 Z " fill="#A5CFF6" transform="translate(147,165)"/>
<path d="M0 0 C0 0.66 0 1.32 0 2 C-6.88002171 4.62096065 -13.72176039 4.18170362 -21 4 C-21 3.67 -21 3.34 -21 3 C-19.80503906 2.92652344 -19.80503906 2.92652344 -18.5859375 2.8515625 C-12.31158208 2.40884642 -6.06821199 0 0 0 Z " fill="#9DCFF6" transform="translate(133,110)"/>
<path d="M0 0 C0.99 0 1.98 0 3 0 C1.70700306 2.88437779 0.34058637 4.87219421 -2 7 C-2.99 6.67 -3.98 6.34 -5 6 C-4.34 6 -3.68 6 -3 6 C-2.87625 5.38125 -2.7525 4.7625 -2.625 4.125 C-2 2 -2 2 0 0 Z " fill="#C6E4F7" transform="translate(151,161)"/>
<path d="M0 0 C0.33 0.66 0.66 1.32 1 2 C-1.4 8.4 -1.4 8.4 -4 11 C-4.99 10.67 -5.98 10.34 -7 10 C-6.401875 9.278125 -5.80375 8.55625 -5.1875 7.8125 C-3.22577804 5.29028605 -1.58276017 2.7698303 0 0 Z " fill="#96C9EF" transform="translate(159,150)"/>
<path d="M0 0 C0.99 0.33 1.98 0.66 3 1 C-0.96 4.465 -0.96 4.465 -5 8 C-5.33 7.01 -5.66 6.02 -6 5 C-5.34 5 -4.68 5 -4 5 C-3.67 4.01 -3.34 3.02 -3 2 C-2.01 2 -1.02 2 0 2 C0 1.34 0 0.68 0 0 Z " fill="#B3DAF8" transform="translate(150,129)"/>
<path d="M0 0 C1.32 0.66 2.64 1.32 4 2 C1.03 4.475 1.03 4.475 -2 7 C-2.6875 5.1875 -2.6875 5.1875 -3 3 C-1.5625 1.25 -1.5625 1.25 0 0 Z " fill="#C4E5F8" transform="translate(146,194)"/>
<path d="M0 0 C0.33 0.66 0.66 1.32 1 2 C-0.1875 5.0625 -0.1875 5.0625 -2 8 C-4.1875 8.875 -4.1875 8.875 -6 9 C-4.47291037 5.56404834 -2.40072955 2.88087546 0 0 Z " fill="#B6DDF8" transform="translate(157,91)"/>
<path d="M0 0 C-1 1.5 -1 1.5 -3 3 C-5.71846235 3.27345479 -8.25677199 3.13491285 -11 3 C-8.15930939 0.15930939 -3.81147953 -1.90573977 0 0 Z " fill="#92C5ED" transform="translate(136,173)"/>
<path d="M0 0 C1.65 0 3.3 0 5 0 C1.71195019 2.91227269 -0.59885603 4.49701212 -5 5 C-4.34 4.67 -3.68 4.34 -3 4 C-3 3.34 -3 2.68 -3 2 C-2.01 2 -1.02 2 0 2 C0 1.34 0 0.68 0 0 Z " fill="#93D2F2" transform="translate(139,137)"/>
<path d="M0 0 C3.82097239 0.53069061 6.06171403 1.49701566 9 4 C8.67 4.66 8.34 5.32 8 6 C4.64532525 4.82133049 2.28780716 3.76945078 0 1 C0 0.67 0 0.34 0 0 Z " fill="#9AC8F3" transform="translate(121,50)"/>
<path d="M0 0 C0.66 0.33 1.32 0.66 2 1 C1.67 1.99 1.34 2.98 1 4 C0.34 4 -0.32 4 -1 4 C-1 4.99 -1 5.98 -1 7 C-1.99 7.33 -2.98 7.66 -4 8 C-2.87548273 5.0280615 -1.77706209 2.66559313 0 0 Z " fill="#B5E5FB" transform="translate(162,83)"/>
</svg>
