<?xml version="1.0" standalone="no"?>
<!DOCTYPE svg PUBLIC "-//W3C//DTD SVG 20010904//EN"
 "http://www.w3.org/TR/2001/REC-SVG-20010904/DTD/svg10.dtd">
<svg version="1.0" xmlns="http://www.w3.org/2000/svg"
 width="405.000000pt" height="499.000000pt" viewBox="0 0 405.000000 499.000000"
 preserveAspectRatio="xMidYMid meet">

<g transform="translate(0.000000,499.000000) scale(0.100000,-0.100000)"
fill="#1A82FF" stroke="none">
<path d="M50 4450 l0 -490 1228 0 c722 0 1258 5 1302 10 266 34 461 292 420
556 -12 80 -62 190 -115 251 -49 58 -145 119 -222 143 -64 20 -91 20 -1339 20
l-1274 0 0 -490z"/>
<path d="M3895 3893 c-25 -69 -100 -207 -159 -293 -75 -110 -272 -304 -385
-379 -158 -104 -320 -174 -520 -224 -85 -21 -98 -21 -1434 -24 l-1347 -4 0
-490 0 -489 1347 3 c1337 3 1349 3 1434 24 402 100 713 317 929 648 207 319
283 723 204 1101 -15 75 -43 174 -48 174 -2 0 -11 -21 -21 -47z"/>
<path d="M3891 1903 c-38 -95 -126 -245 -199 -340 -209 -269 -497 -452 -852
-541 l-105 -26 -1343 -3 -1342 -4 0 -490 0 -489 1343 3 c1495 3 1368 -3 1597
73 362 121 670 388 847 737 156 306 198 670 118 1005 -34 141 -36 144 -64 75z"/>
</g>
</svg>
