<svg xmlns="http://www.w3.org/2000/svg" width="631" height="395" viewBox="0 0 631 395" version="1.1"><path d="M 265.500 70.827 C 259.382 73.736, 256.883 76.626, 249.296 89.567 C 237.050 110.453, 234.930 114.727, 233.615 121.185 L 232.328 127.500 209.914 128 C 189.458 128.456, 187.151 128.687, 183.500 130.644 C 178.590 133.275, 176.532 135.482, 174.538 140.254 C 171.752 146.923, 172.398 151.143, 181.009 182.500 C 183.241 190.624, 187 199.214, 189.579 202.079 C 190.361 202.947, 191 204.078, 191 204.592 C 191 205.105, 184.428 212.045, 176.395 220.013 C 167.800 228.538, 161.018 236.146, 159.917 238.500 C 156.195 246.449, 158.144 255.042, 165.162 261.636 C 169.323 265.544, 199.973 283.121, 206.516 285.351 C 209.178 286.258, 213.040 287, 215.098 287 L 218.839 287 219.170 310.250 C 219.529 335.531, 219.744 336.589, 225.661 342.186 C 232.490 348.648, 239.597 348.612, 263.927 341.993 C 280.974 337.355, 285.885 335.442, 293.300 330.551 L 296.101 328.704 310.920 343.786 C 324.640 357.750, 326.158 358.990, 331.386 360.510 C 339.662 362.916, 345.607 361.250, 351.634 354.835 C 354.723 351.548, 371.566 323.366, 375.127 315.526 C 376.133 313.312, 376.966 310.074, 376.978 308.332 C 377.024 301.744, 376.113 302.002, 399.357 301.978 C 422.662 301.954, 425.614 301.342, 431.186 295.376 C 437.678 288.426, 437.584 282.073, 430.613 256.682 C 425.777 239.069, 423.677 233.774, 418.754 226.773 C 417.696 225.268, 419.424 223.147, 432.232 210.237 C 447.580 194.765, 450 191.171, 450 183.848 C 450 174.085, 444.499 168.479, 423 156.333 C 405.450 146.418, 404.493 145.975, 397.631 144.574 L 391.500 143.322 391.405 121.390 C 391.325 102.626, 391.056 98.920, 389.544 95.735 C 385.857 87.965, 377.010 83.175, 368.510 84.347 C 364.471 84.903, 343.239 90.377, 330.785 94.072 C 327.091 95.167, 322.057 97.600, 319.597 99.478 L 315.125 102.892 300.812 88.848 C 292.941 81.124, 284.884 73.711, 282.908 72.374 C 277.935 69.009, 270.680 68.364, 265.500 70.827 M 267.795 71.460 C 263.204 73.038, 258.488 77.389, 254.203 84 C 249.842 90.726, 245.875 98, 246.567 98 C 246.848 98, 246.273 98.868, 245.289 99.929 C 241.540 103.972, 235.012 118.043, 234.377 123.449 L 233.744 128.839 211.122 129.220 C 186.956 129.626, 184.815 130.044, 179.397 135.416 C 174.148 140.619, 173.457 148.256, 177.037 161.500 C 178.226 165.900, 179.842 172.405, 180.627 175.956 C 182.826 185.896, 186.801 196.115, 190.054 200.191 C 191.674 202.222, 193 204.107, 193 204.381 C 193 204.654, 188.162 209.776, 182.250 215.763 C 162.877 235.377, 161.789 236.684, 160.414 241.984 C 159.509 245.474, 159.422 247.944, 160.116 250.458 C 161.170 254.275, 165.028 260.888, 166.241 260.958 C 166.649 260.981, 169.046 262.575, 171.568 264.500 C 174.090 266.425, 176.504 268, 176.933 268 C 177.847 268, 194.331 277.397, 198.040 280.033 C 201.753 282.670, 212.314 286, 216.968 286 L 221 286 221.022 308.750 C 221.046 333.822, 221.723 337.277, 227.505 341.825 C 233.764 346.749, 240.303 346.861, 256.500 342.324 C 261.450 340.937, 266.611 339.595, 267.969 339.342 C 269.327 339.089, 270.943 338.462, 271.561 337.949 C 272.179 337.437, 272.906 337.240, 273.178 337.511 C 274.087 338.421, 285.453 333.987, 289.500 331.145 C 291.700 329.600, 294.067 328.005, 294.761 327.602 C 295.577 327.127, 299.785 330.595, 306.691 337.434 C 312.558 343.245, 317.728 348, 318.180 348 C 318.631 348, 319 348.365, 319 348.810 C 319 350.473, 325.640 356.366, 329.500 358.129 C 331.700 359.134, 335.075 359.956, 337 359.956 C 343.350 359.956, 350.949 355.212, 354.389 349.101 C 355 348.016, 357.044 344.512, 358.931 341.314 C 360.819 338.116, 363.424 333.530, 364.721 331.123 C 366.018 328.715, 368.345 324.890, 369.893 322.623 C 373.003 318.067, 375.752 310.391, 376.206 305 L 376.500 301.500 398.500 300.925 C 412.450 300.560, 421.598 299.896, 423.500 299.109 C 429.794 296.507, 434.977 288.446, 434.994 281.232 C 434.999 279.177, 433.379 272.452, 429.515 258.500 C 428.754 255.750, 427.623 251.475, 427.002 249 C 425.338 242.368, 421.904 233.917, 419.483 230.500 C 418.315 228.850, 417.026 226.937, 416.619 226.249 C 416.139 225.435, 420.886 219.915, 430.190 210.468 C 438.061 202.477, 445.512 194.081, 446.750 191.812 C 449.690 186.419, 449.660 180.608, 446.667 175.663 C 444.222 171.624, 436.621 165, 434.431 165 C 433.722 165, 432.512 164.369, 431.741 163.598 C 430.970 162.828, 427.901 160.938, 424.920 159.399 C 421.939 157.861, 419.275 156.302, 419 155.935 C 418.725 155.569, 416.475 154.256, 414 153.018 C 411.525 151.780, 408.825 150.222, 408 149.555 C 406.068 147.994, 396.474 145, 393.404 145 C 390.203 145, 390.079 144.131, 389.767 119.401 C 389.563 103.299, 389.175 97.911, 388.128 96.651 C 387.373 95.743, 387.032 95, 387.371 95 C 388.884 95, 383.135 89.617, 379.790 87.902 C 374.547 85.214, 368.299 85.517, 355 89.107 C 348.675 90.814, 343.050 92.288, 342.500 92.383 C 341.950 92.478, 340.938 92.908, 340.250 93.337 C 339.563 93.767, 339 93.891, 339 93.613 C 339 92.356, 327.843 96.599, 321.649 100.211 L 314.798 104.206 299.930 89.397 C 291.753 81.252, 283.925 73.993, 282.536 73.265 C 278.224 71.006, 271.508 70.183, 267.795 71.460 M 267.989 94.250 C 266.899 96.037, 266.006 97.856, 266.004 98.292 C 265.999 99.220, 267.750 101.455, 270.336 103.820 C 271.346 104.744, 278.996 112.353, 287.336 120.730 C 295.676 129.106, 303.063 135.968, 303.750 135.980 C 304.646 135.994, 305 133.762, 305 128.090 L 305 120.179 290.369 105.590 C 278.304 93.558, 275.233 91, 272.855 91 C 270.674 91, 269.487 91.793, 267.989 94.250 M 269.557 94.223 C 268.701 95.445, 268 97.137, 268 97.983 C 268 99.558, 301.830 134, 303.377 134 C 303.848 134, 304.046 131.058, 303.817 127.463 L 303.401 120.926 288.963 106.463 C 281.023 98.508, 273.758 92, 272.820 92 C 271.881 92, 270.413 93, 269.557 94.223 M 362.250 104.706 C 361.012 104.944, 359.988 105.670, 359.974 106.320 C 359.721 117.846, 359.972 159.305, 360.297 159.630 C 360.541 159.874, 363.274 157.678, 366.370 154.750 L 372 149.426 372 127.913 C 372 112.514, 371.659 106.059, 370.800 105.200 C 369.620 104.020, 366.689 103.851, 362.250 104.706 M 364 105.894 L 361.500 106.589 361.233 131.795 C 361.082 146.051, 361.352 157, 361.855 157 C 362.345 157, 364.603 154.985, 366.873 152.522 L 371 148.045 371 127.722 C 371 104.286, 370.901 103.976, 364 105.894 M 260.200 107.200 C 259.540 107.860, 258.996 108.873, 258.990 109.450 C 258.985 110.028, 257.185 113.331, 254.990 116.790 C 252.796 120.250, 251 123.512, 251 124.040 C 251 124.568, 250.638 125, 250.196 125 C 249.065 125, 248.814 132.211, 249.887 133.876 C 250.375 134.633, 256.775 141.296, 264.109 148.684 C 272.853 157.492, 277.971 161.941, 278.972 161.606 C 285.976 159.263, 294.821 157.041, 299.443 156.464 L 305 155.770 305 151.839 C 305 148.055, 304.217 147.127, 284.001 126.954 C 272.452 115.429, 262.642 106, 262.201 106 C 261.761 106, 260.860 106.540, 260.200 107.200 M 255.750 117.945 C 252.588 123.401, 250.003 128.908, 250.006 130.183 C 250.010 131.824, 254.092 136.587, 263.989 146.500 C 271.677 154.200, 278.537 160.408, 279.234 160.296 C 279.930 160.184, 282.975 159.192, 286 158.090 C 289.025 156.989, 294.087 155.785, 297.250 155.415 C 300.928 154.984, 303 154.277, 303 153.453 C 303 152.744, 303.243 151.530, 303.540 150.756 C 304.119 149.247, 264.617 107.990, 262.615 108.013 C 262.002 108.020, 258.913 112.489, 255.750 117.945 M 342.500 110.046 C 338.650 111.117, 333.615 112.492, 331.312 113.100 C 323.677 115.116, 323.540 115.547, 323.194 138.522 L 322.887 158.838 328.194 161.488 C 334.666 164.720, 344 171.026, 344 172.166 C 344 174.064, 348.602 172.807, 350.733 170.327 L 353.029 167.655 352.765 138.091 C 352.537 112.709, 352.288 108.496, 351 108.312 C 350.175 108.194, 346.350 108.974, 342.500 110.046 M 337.500 112.690 C 332.550 114.072, 327.712 115.901, 326.750 116.756 C 325.192 118.139, 325 120.534, 325 138.572 L 325 158.835 329.750 160.648 C 332.363 161.645, 337.403 164.657, 340.950 167.342 L 347.401 172.223 349.200 170.001 C 350.840 167.976, 351 165.216, 351 138.889 L 351 110 348.750 110.089 C 347.512 110.139, 342.450 111.309, 337.500 112.690 M 193.335 150.250 C 192.159 152.936, 193.253 158.900, 195.150 160.142 C 195.893 160.628, 197.400 160.801, 198.500 160.527 C 199.600 160.252, 211.188 160.021, 224.250 160.014 C 238.276 160.006, 248 159.618, 248 159.067 C 248 158.553, 245.779 155.853, 243.065 153.067 L 238.130 148 216.225 148 C 194.468 148, 194.314 148.015, 193.335 150.250 M 195.200 150.200 C 193.906 151.494, 193.629 154.869, 194.607 157.418 C 195.139 158.804, 198.393 159, 220.819 159 L 246.425 159 241.500 154 L 236.575 149 216.488 149 C 202.197 149, 196.054 149.346, 195.200 150.200 M 372.136 174.542 L 357.724 188.967 360.252 196.734 C 361.642 201.005, 363.086 207.088, 363.462 210.250 L 364.144 216 368.350 216 C 371.072 216, 373.126 215.383, 374.174 214.250 C 375.064 213.287, 384.389 203.970, 394.896 193.545 C 405.403 183.119, 414 174.200, 414 173.723 C 414 172.601, 411.398 170, 410.275 170 C 409.798 170, 406.054 167.916, 401.954 165.368 C 397.065 162.330, 393.132 160.630, 390.524 160.427 C 386.616 160.123, 386.300 160.365, 372.136 174.542 M 373.266 175.250 C 361.755 186.632, 359.937 188.852, 360.375 191 C 360.656 192.375, 361.803 196.875, 362.925 201 C 364.048 205.125, 364.973 209.963, 364.983 211.750 C 364.999 214.748, 365.252 215, 368.259 215 C 371.167 215, 373.727 212.787, 392.009 194.464 L 412.500 173.928 410.165 172.146 C 408.881 171.165, 406.181 169.509, 404.165 168.464 C 402.149 167.419, 398.933 165.537, 397.018 164.282 C 395.099 163.025, 391.993 162, 390.101 162 C 387.035 162, 385.227 163.422, 373.266 175.250 M 197.678 167.823 C 196.755 168.001, 196 168.235, 196 168.343 C 196 168.452, 196.942 171.906, 198.093 176.020 C 199.243 180.134, 200.396 184.615, 200.653 185.977 C 201.500 190.454, 204.054 194.703, 206.595 195.861 C 208.190 196.588, 216.133 197, 228.560 197 L 248.025 197 250.488 191.750 C 253.248 185.869, 254.112 184.445, 258.750 178.134 C 262.703 172.756, 262.765 171.731, 259.274 169.444 C 256.826 167.840, 253.640 167.650, 227.952 167.579 C 212.224 167.536, 198.601 167.645, 197.678 167.823 M 198.952 169.028 C 198.055 169.584, 202.361 187.912, 204.217 191.442 C 204.812 192.574, 205.795 193.831, 206.400 194.235 C 207.005 194.639, 216.359 194.976, 227.187 194.985 L 246.875 195 250.092 188.466 C 251.861 184.872, 255.022 179.984, 257.117 177.605 L 260.925 173.278 258.711 171.199 C 256.595 169.210, 255.260 169.106, 228.151 168.810 C 212.559 168.639, 199.420 168.738, 198.952 169.028 M 295.500 171.701 C 278.374 175.714, 264.662 188.896, 260.976 204.886 C 259.395 211.749, 260.201 225.040, 262.561 231 C 265.458 238.316, 270.312 244.757, 277.494 250.814 C 283.931 256.242, 300.683 260.830, 308.899 259.415 C 324.314 256.760, 333.727 250.977, 341.142 239.606 C 345.473 232.964, 346.737 229.348, 347.995 220 C 349.097 211.808, 347.252 201.483, 343.437 194.500 C 340.689 189.468, 330.383 178, 328.610 178 C 328.086 178, 326.947 177.386, 326.079 176.636 C 322.823 173.825, 311.799 170.997, 304.556 171.116 C 300.675 171.180, 296.600 171.443, 295.500 171.701 M 297.293 172.982 C 289.140 174.218, 279.591 179.217, 273.535 185.420 C 253.139 206.311, 259.356 241.291, 285.760 254.203 C 292.194 257.351, 293.021 257.500, 304 257.499 C 314.390 257.498, 316.054 257.239, 321.235 254.811 C 329.198 251.081, 333.651 247.464, 338.670 240.655 C 353.847 220.063, 347.425 190.756, 324.875 177.697 C 317.489 173.420, 306.640 171.565, 297.293 172.982 M 402.129 196.118 C 392.158 206.082, 384 214.632, 384 215.118 C 384 215.603, 387.645 216, 392.100 216 L 400.200 216 415.100 200.765 C 423.295 192.386, 430 184.979, 430 184.305 C 430 182.363, 424.733 178, 422.389 178 C 420.959 178, 414.289 183.965, 402.129 196.118 M 412.705 187.701 C 407.642 192.541, 399.476 200.662, 394.558 205.750 L 385.617 215 392.259 215 L 398.901 215 413.451 200.498 C 422.365 191.613, 428 185.233, 428 184.024 C 428 182.837, 426.787 181.424, 424.955 180.477 L 421.911 178.902 412.705 187.701 M 207.998 216.757 C 203.711 219.745, 179 245.360, 179 246.816 C 179 248.461, 184.703 254, 186.396 254 C 187.641 254, 224.202 217.894, 224.813 216.061 C 225.450 214.150, 210.874 214.753, 207.998 216.757 M 215.842 235.497 C 204.654 246.771, 195.363 256.841, 195.196 257.875 C 194.991 259.147, 195.646 259.945, 197.216 260.339 C 198.494 260.660, 200.460 261.728, 201.585 262.711 C 205.397 266.046, 215.842 271, 219.060 271 C 221.683 271, 223.471 269.781, 228.964 264.250 C 232.651 260.538, 236.755 256.549, 238.084 255.387 C 239.413 254.225, 242.849 250.690, 245.720 247.532 L 250.939 241.790 249.434 238.187 C 248.605 236.205, 247.226 230.515, 246.368 225.542 C 245.510 220.569, 244.600 216.162, 244.345 215.750 C 244.090 215.338, 242.150 215, 240.033 215 C 236.355 215, 235.283 215.909, 215.842 235.497 M 195.519 230.431 C 186.909 238.989, 181 245.640, 181 246.776 C 181 248.558, 182.850 250.760, 185.713 252.384 C 186.468 252.812, 193.752 246.279, 204.963 235.118 C 214.884 225.244, 223 216.902, 223 216.582 C 223 216.262, 220.083 216, 216.519 216 L 210.038 216 195.519 230.431 M 216.685 236.791 C 200.809 252.699, 196.182 257.886, 197.185 258.651 C 201.121 261.657, 215.089 269.068, 217.863 269.623 C 220.949 270.240, 221.705 269.657, 235.254 256.202 L 249.418 242.137 247.042 235.406 C 245.735 231.704, 244.404 225.936, 244.083 222.588 C 243.519 216.703, 243.400 216.491, 240.500 216.217 C 237.797 215.962, 235.440 217.998, 216.685 236.791 M 358.417 239.579 C 357.455 242.097, 354.493 247.068, 351.834 250.625 C 349.175 254.181, 347 257.460, 347 257.911 C 347 258.362, 347.933 259.916, 349.073 261.365 L 351.145 264 381.573 264 C 408.915 264, 412 263.836, 412 262.385 C 412 259.911, 406.945 241.841, 405.422 238.871 C 404.681 237.425, 403.346 235.963, 402.455 235.621 C 401.565 235.280, 391.685 235, 380.501 235 L 360.165 235 358.417 239.579 M 359.125 241.752 C 357.528 244.916, 354.355 249.979, 352.074 253.002 L 347.928 258.500 350.520 260.750 C 353.076 262.969, 353.499 263, 381.389 263 C 396.942 263, 409.909 262.758, 410.205 262.462 C 411.365 261.301, 404.845 239.490, 402.818 237.750 C 401.027 236.214, 398.412 236, 381.404 236 L 362.029 236 359.125 241.752 M 258.073 260.635 C 256.081 263.166, 256 264.437, 256 292.968 C 256 309.302, 256.264 322.931, 256.587 323.254 C 256.910 323.576, 259.272 323.257, 261.837 322.543 C 264.402 321.830, 270.233 320.222, 274.796 318.971 C 280.304 317.461, 283.434 316.058, 284.108 314.799 C 284.706 313.681, 285.094 304.601, 285.053 292.701 C 284.974 270.203, 285.375 271.511, 277.500 268.037 C 275.300 267.066, 271.151 264.411, 268.279 262.136 C 265.408 259.861, 262.403 258, 261.602 258 C 260.801 258, 259.212 259.186, 258.073 260.635 M 259.174 261.314 C 257.044 263.582, 257 264.223, 257 292.894 L 257 322.159 260.250 321.487 C 270.146 319.443, 280.665 315.813, 282.250 313.896 C 283.784 312.040, 284 309.382, 284 292.399 L 284 273.020 277.750 270.181 C 274.313 268.620, 269.335 265.465, 266.689 263.171 C 264.043 260.877, 261.759 259, 261.613 259 C 261.468 259, 260.370 260.042, 259.174 261.314 M 325.037 271.068 C 322.583 272.182, 317.183 273.592, 313.037 274.203 C 297.955 276.424, 298.782 278.554, 324.892 304.750 C 335.993 315.887, 345.682 325, 346.423 325 C 348.038 325, 349.280 323.169, 355.355 311.830 C 357.910 307.062, 360 302.046, 360 300.684 C 360 298.833, 356.333 294.518, 345.485 283.604 C 337.502 275.572, 330.639 269.010, 330.235 269.022 C 329.831 269.034, 327.492 269.955, 325.037 271.068 M 324 273.027 C 321.525 274.028, 317.025 275.144, 314 275.506 C 305.611 276.510, 305 276.811, 305 279.939 C 305 282.244, 308.548 286.327, 324.922 302.872 C 335.879 313.942, 345.442 322.983, 346.172 322.963 C 347.945 322.913, 358.250 304.384, 358.250 301.246 C 358.250 299.407, 354.712 295.232, 344.388 284.888 C 336.765 277.250, 330.071 271.047, 329.513 271.104 C 328.956 271.161, 326.475 272.026, 324 273.027 M 360 271.760 C 360 272.660, 363.471 276.420, 367.814 280.224 L 370.924 282.948 391.712 283.039 C 403.146 283.089, 413.288 282.828, 414.250 282.458 C 416.248 281.691, 416.667 276.114, 414.965 272.934 C 413.981 271.095, 412.601 271, 386.965 271 C 372.134 271, 360 271.342, 360 271.760 M 242.952 275.750 C 236.536 282.704, 236.828 281.492, 236.484 302.621 C 236.308 313.445, 236.570 323.370, 237.067 324.676 C 238.280 327.867, 240.381 328.502, 245.075 327.096 L 249 325.920 249 298.960 C 249 269.087, 249.022 269.171, 242.952 275.750 M 363.449 272.884 C 363.177 273.156, 364.859 275.318, 367.186 277.689 L 371.416 282 392.086 282 C 408.981 282, 412.976 281.734, 413.966 280.541 C 415.573 278.605, 414.359 273.227, 412.181 272.630 C 409.933 272.015, 364.080 272.254, 363.449 272.884 M 242.188 278.309 L 237.959 282.617 238.230 304.059 L 238.500 325.500 240.852 325.833 C 242.145 326.016, 244.283 325.895, 245.602 325.564 L 248 324.962 248 299.481 C 248 285.466, 247.644 274, 247.208 274 C 246.773 274, 244.514 275.939, 242.188 278.309 M 303.531 295.949 C 303.173 296.530, 303.194 300.266, 303.579 304.252 C 304.264 311.345, 304.400 311.626, 309.890 317.388 C 312.975 320.627, 316.559 324.227, 317.852 325.388 C 319.146 326.550, 323.306 330.538, 327.096 334.250 C 330.886 337.962, 334.686 341, 335.541 341 C 337.754 341, 342 336.108, 342 333.558 C 342 332.103, 336.183 325.611, 323.985 313.454 C 314.077 303.579, 305.568 295.364, 305.077 295.197 C 304.585 295.031, 303.890 295.369, 303.531 295.949 M 305 303.467 L 305 310.426 319.823 325.250 C 335.710 341.137, 336.600 341.607, 339.638 335.733 L 341.202 332.709 323.101 314.608 L 305 296.507 305 303.467" stroke="none" fill="#fbe9c4" fill-rule="evenodd"/><path d="M 267.795 71.460 C 263.204 73.038, 258.488 77.389, 254.203 84 C 249.842 90.726, 245.875 98, 246.567 98 C 246.848 98, 246.273 98.868, 245.289 99.929 C 241.540 103.972, 235.012 118.043, 234.377 123.449 L 233.744 128.839 211.122 129.220 C 186.956 129.626, 184.815 130.044, 179.397 135.416 C 174.148 140.619, 173.457 148.256, 177.037 161.500 C 178.226 165.900, 179.842 172.405, 180.627 175.956 C 182.826 185.896, 186.801 196.115, 190.054 200.191 C 191.674 202.222, 193 204.107, 193 204.381 C 193 204.654, 188.162 209.776, 182.250 215.763 C 162.877 235.377, 161.789 236.684, 160.414 241.984 C 159.509 245.474, 159.422 247.944, 160.116 250.458 C 161.170 254.275, 165.028 260.888, 166.241 260.958 C 166.649 260.981, 169.046 262.575, 171.568 264.500 C 174.090 266.425, 176.504 268, 176.933 268 C 177.847 268, 194.331 277.397, 198.040 280.033 C 201.753 282.670, 212.314 286, 216.968 286 L 221 286 221.022 308.750 C 221.046 333.822, 221.723 337.277, 227.505 341.825 C 233.764 346.749, 240.303 346.861, 256.500 342.324 C 261.450 340.937, 266.611 339.595, 267.969 339.342 C 269.327 339.089, 270.943 338.462, 271.561 337.949 C 272.179 337.437, 272.906 337.240, 273.178 337.511 C 274.087 338.421, 285.453 333.987, 289.500 331.145 C 291.700 329.600, 294.067 328.005, 294.761 327.602 C 295.577 327.127, 299.785 330.595, 306.691 337.434 C 312.558 343.245, 317.728 348, 318.180 348 C 318.631 348, 319 348.365, 319 348.810 C 319 350.473, 325.640 356.366, 329.500 358.129 C 331.700 359.134, 335.075 359.956, 337 359.956 C 343.350 359.956, 350.949 355.212, 354.389 349.101 C 355 348.016, 357.044 344.512, 358.931 341.314 C 360.819 338.116, 363.424 333.530, 364.721 331.123 C 366.018 328.715, 368.345 324.890, 369.893 322.623 C 373.003 318.067, 375.752 310.391, 376.206 305 L 376.500 301.500 398.500 300.925 C 412.450 300.560, 421.598 299.896, 423.500 299.109 C 429.794 296.507, 434.977 288.446, 434.994 281.232 C 434.999 279.177, 433.379 272.452, 429.515 258.500 C 428.754 255.750, 427.623 251.475, 427.002 249 C 425.338 242.368, 421.904 233.917, 419.483 230.500 C 418.315 228.850, 417.026 226.937, 416.619 226.249 C 416.139 225.435, 420.886 219.915, 430.190 210.468 C 438.061 202.477, 445.512 194.081, 446.750 191.812 C 449.690 186.419, 449.660 180.608, 446.667 175.663 C 444.222 171.624, 436.621 165, 434.431 165 C 433.722 165, 432.512 164.369, 431.741 163.598 C 430.970 162.828, 427.901 160.938, 424.920 159.399 C 421.939 157.861, 419.275 156.302, 419 155.935 C 418.725 155.569, 416.475 154.256, 414 153.018 C 411.525 151.780, 408.825 150.222, 408 149.555 C 406.068 147.994, 396.474 145, 393.404 145 C 390.203 145, 390.079 144.131, 389.767 119.401 C 389.563 103.299, 389.175 97.911, 388.128 96.651 C 387.373 95.743, 387.032 95, 387.371 95 C 388.884 95, 383.135 89.617, 379.790 87.902 C 374.547 85.214, 368.299 85.517, 355 89.107 C 348.675 90.814, 343.050 92.288, 342.500 92.383 C 341.950 92.478, 340.938 92.908, 340.250 93.337 C 339.563 93.767, 339 93.891, 339 93.613 C 339 92.356, 327.843 96.599, 321.649 100.211 L 314.798 104.206 299.930 89.397 C 291.753 81.252, 283.925 73.993, 282.536 73.265 C 278.224 71.006, 271.508 70.183, 267.795 71.460 M 267.989 94.250 C 266.899 96.037, 266.006 97.856, 266.004 98.292 C 265.999 99.220, 267.750 101.455, 270.336 103.820 C 271.346 104.744, 278.996 112.353, 287.336 120.730 C 295.676 129.106, 303.063 135.968, 303.750 135.980 C 304.646 135.994, 305 133.762, 305 128.090 L 305 120.179 290.369 105.590 C 278.304 93.558, 275.233 91, 272.855 91 C 270.674 91, 269.487 91.793, 267.989 94.250 M 362.250 104.706 C 361.012 104.944, 359.988 105.670, 359.974 106.320 C 359.721 117.846, 359.972 159.305, 360.297 159.630 C 360.541 159.874, 363.274 157.678, 366.370 154.750 L 372 149.426 372 127.913 C 372 112.514, 371.659 106.059, 370.800 105.200 C 369.620 104.020, 366.689 103.851, 362.250 104.706 M 260.200 107.200 C 259.540 107.860, 258.996 108.873, 258.990 109.450 C 258.985 110.028, 257.185 113.331, 254.990 116.790 C 252.796 120.250, 251 123.512, 251 124.040 C 251 124.568, 250.638 125, 250.196 125 C 249.065 125, 248.814 132.211, 249.887 133.876 C 250.375 134.633, 256.775 141.296, 264.109 148.684 C 272.853 157.492, 277.971 161.941, 278.972 161.606 C 285.976 159.263, 294.821 157.041, 299.443 156.464 L 305 155.770 305 151.839 C 305 148.055, 304.217 147.127, 284.001 126.954 C 272.452 115.429, 262.642 106, 262.201 106 C 261.761 106, 260.860 106.540, 260.200 107.200 M 342.500 110.046 C 338.650 111.117, 333.615 112.492, 331.312 113.100 C 323.677 115.116, 323.540 115.547, 323.194 138.522 L 322.887 158.838 328.194 161.488 C 334.666 164.720, 344 171.026, 344 172.166 C 344 174.064, 348.602 172.807, 350.733 170.327 L 353.029 167.655 352.765 138.091 C 352.537 112.709, 352.288 108.496, 351 108.312 C 350.175 108.194, 346.350 108.974, 342.500 110.046 M 193.335 150.250 C 192.159 152.936, 193.253 158.900, 195.150 160.142 C 195.893 160.628, 197.400 160.801, 198.500 160.527 C 199.600 160.252, 211.188 160.021, 224.250 160.014 C 238.276 160.006, 248 159.618, 248 159.067 C 248 158.553, 245.779 155.853, 243.065 153.067 L 238.130 148 216.225 148 C 194.468 148, 194.314 148.015, 193.335 150.250 M 372.136 174.542 L 357.724 188.967 360.252 196.734 C 361.642 201.005, 363.086 207.088, 363.462 210.250 L 364.144 216 368.350 216 C 371.072 216, 373.126 215.383, 374.174 214.250 C 375.064 213.287, 384.389 203.970, 394.896 193.545 C 405.403 183.119, 414 174.200, 414 173.723 C 414 172.601, 411.398 170, 410.275 170 C 409.798 170, 406.054 167.916, 401.954 165.368 C 397.065 162.330, 393.132 160.630, 390.524 160.427 C 386.616 160.123, 386.300 160.365, 372.136 174.542 M 197.678 167.823 C 196.755 168.001, 196 168.235, 196 168.343 C 196 168.452, 196.942 171.906, 198.093 176.020 C 199.243 180.134, 200.396 184.615, 200.653 185.977 C 201.500 190.454, 204.054 194.703, 206.595 195.861 C 208.190 196.588, 216.133 197, 228.560 197 L 248.025 197 250.488 191.750 C 253.248 185.869, 254.112 184.445, 258.750 178.134 C 262.703 172.756, 262.765 171.731, 259.274 169.444 C 256.826 167.840, 253.640 167.650, 227.952 167.579 C 212.224 167.536, 198.601 167.645, 197.678 167.823 M 295.500 171.701 C 278.374 175.714, 264.662 188.896, 260.976 204.886 C 259.395 211.749, 260.201 225.040, 262.561 231 C 265.458 238.316, 270.312 244.757, 277.494 250.814 C 283.931 256.242, 300.683 260.830, 308.899 259.415 C 324.314 256.760, 333.727 250.977, 341.142 239.606 C 345.473 232.964, 346.737 229.348, 347.995 220 C 349.097 211.808, 347.252 201.483, 343.437 194.500 C 340.689 189.468, 330.383 178, 328.610 178 C 328.086 178, 326.947 177.386, 326.079 176.636 C 322.823 173.825, 311.799 170.997, 304.556 171.116 C 300.675 171.180, 296.600 171.443, 295.500 171.701 M 402.129 196.118 C 392.158 206.082, 384 214.632, 384 215.118 C 384 215.603, 387.645 216, 392.100 216 L 400.200 216 415.100 200.765 C 423.295 192.386, 430 184.979, 430 184.305 C 430 182.363, 424.733 178, 422.389 178 C 420.959 178, 414.289 183.965, 402.129 196.118 M 207.998 216.757 C 203.711 219.745, 179 245.360, 179 246.816 C 179 248.461, 184.703 254, 186.396 254 C 187.641 254, 224.202 217.894, 224.813 216.061 C 225.450 214.150, 210.874 214.753, 207.998 216.757 M 215.842 235.497 C 204.654 246.771, 195.363 256.841, 195.196 257.875 C 194.991 259.147, 195.646 259.945, 197.216 260.339 C 198.494 260.660, 200.460 261.728, 201.585 262.711 C 205.397 266.046, 215.842 271, 219.060 271 C 221.683 271, 223.471 269.781, 228.964 264.250 C 232.651 260.538, 236.755 256.549, 238.084 255.387 C 239.413 254.225, 242.849 250.690, 245.720 247.532 L 250.939 241.790 249.434 238.187 C 248.605 236.205, 247.226 230.515, 246.368 225.542 C 245.510 220.569, 244.600 216.162, 244.345 215.750 C 244.090 215.338, 242.150 215, 240.033 215 C 236.355 215, 235.283 215.909, 215.842 235.497 M 358.417 239.579 C 357.455 242.097, 354.493 247.068, 351.834 250.625 C 349.175 254.181, 347 257.460, 347 257.911 C 347 258.362, 347.933 259.916, 349.073 261.365 L 351.145 264 381.573 264 C 408.915 264, 412 263.836, 412 262.385 C 412 259.911, 406.945 241.841, 405.422 238.871 C 404.681 237.425, 403.346 235.963, 402.455 235.621 C 401.565 235.280, 391.685 235, 380.501 235 L 360.165 235 358.417 239.579 M 258.073 260.635 C 256.081 263.166, 256 264.437, 256 292.968 C 256 309.302, 256.264 322.931, 256.587 323.254 C 256.910 323.576, 259.272 323.257, 261.837 322.543 C 264.402 321.830, 270.233 320.222, 274.796 318.971 C 280.304 317.461, 283.434 316.058, 284.108 314.799 C 284.706 313.681, 285.094 304.601, 285.053 292.701 C 284.974 270.203, 285.375 271.511, 277.500 268.037 C 275.300 267.066, 271.151 264.411, 268.279 262.136 C 265.408 259.861, 262.403 258, 261.602 258 C 260.801 258, 259.212 259.186, 258.073 260.635 M 325.037 271.068 C 322.583 272.182, 317.183 273.592, 313.037 274.203 C 297.955 276.424, 298.782 278.554, 324.892 304.750 C 335.993 315.887, 345.682 325, 346.423 325 C 348.038 325, 349.280 323.169, 355.355 311.830 C 357.910 307.062, 360 302.046, 360 300.684 C 360 298.833, 356.333 294.518, 345.485 283.604 C 337.502 275.572, 330.639 269.010, 330.235 269.022 C 329.831 269.034, 327.492 269.955, 325.037 271.068 M 360 271.760 C 360 272.660, 363.471 276.420, 367.814 280.224 L 370.924 282.948 391.712 283.039 C 403.146 283.089, 413.288 282.828, 414.250 282.458 C 416.248 281.691, 416.667 276.114, 414.965 272.934 C 413.981 271.095, 412.601 271, 386.965 271 C 372.134 271, 360 271.342, 360 271.760 M 242.952 275.750 C 236.536 282.704, 236.828 281.492, 236.484 302.621 C 236.308 313.445, 236.570 323.370, 237.067 324.676 C 238.280 327.867, 240.381 328.502, 245.075 327.096 L 249 325.920 249 298.960 C 249 269.087, 249.022 269.171, 242.952 275.750 M 303.531 295.949 C 303.173 296.530, 303.194 300.266, 303.579 304.252 C 304.264 311.345, 304.400 311.626, 309.890 317.388 C 312.975 320.627, 316.559 324.227, 317.852 325.388 C 319.146 326.550, 323.306 330.538, 327.096 334.250 C 330.886 337.962, 334.686 341, 335.541 341 C 337.754 341, 342 336.108, 342 333.558 C 342 332.103, 336.183 325.611, 323.985 313.454 C 314.077 303.579, 305.568 295.364, 305.077 295.197 C 304.585 295.031, 303.890 295.369, 303.531 295.949" stroke="none" fill="#fbfbf8" fill-rule="evenodd"/></svg>